<?xml version="1.0" encoding="UTF-8"?>
<svg version="1.1" xmlns="http://www.w3.org/2000/svg" width="512" height="512">
<path d="M0 0 C14.45727023 12.26229781 25.19756985 30.11089287 28 49 C28.10957031 49.69996094 28.21914062 50.39992188 28.33203125 51.12109375 C31.18599079 72.46871108 26.9653116 95.34542468 13.91015625 112.79296875 C12.53758747 114.51302329 11.14745436 116.21931805 9.734375 117.90625 C7.86801017 120.08574483 7.86801017 120.08574483 6 123 C5.34 123 4.68 123 4 123 C4 123.66 4 124.32 4 125 C-17.41988087 143.40195951 -40.26852111 148.65390608 -68 147 C-83.55197174 145.26318683 -96.86691612 137.45969252 -109 128 C-109.76054688 127.46890625 -110.52109375 126.9378125 -111.3046875 126.390625 C-111.86414063 125.93171875 -112.42359375 125.4728125 -113 125 C-113 124.34 -113 123.68 -113 123 C-113.66 123 -114.32 123 -115 123 C-128.19571069 108.67603152 -137.28887458 89.60232679 -138 70 C-138.03996094 69.07960938 -138.07992187 68.15921875 -138.12109375 67.2109375 C-138.63852434 44.13962071 -131.13906953 24.31439214 -116 7 C-115.40832031 6.31292969 -114.81664063 5.62585938 -114.20703125 4.91796875 C-108.38167621 -1.37937668 -101.31322841 -5.6448345 -94 -10 C-93.278125 -10.43441406 -92.55625 -10.86882812 -91.8125 -11.31640625 C-62.82938966 -27.24462422 -24.81299663 -19.83073047 0 0 Z " fill="#010100" transform="translate(224,278)"/>
<path d="M0 0 C0.73734375 0.59296875 1.4746875 1.1859375 2.234375 1.796875 C2.99234375 2.32796875 3.7503125 2.8590625 4.53125 3.40625 C5.09328125 3.86515625 5.6553125 4.3240625 6.234375 4.796875 C6.234375 5.456875 6.234375 6.116875 6.234375 6.796875 C8.214375 7.786875 8.214375 7.786875 10.234375 8.796875 C10.234375 9.456875 10.234375 10.116875 10.234375 10.796875 C10.894375 10.796875 11.554375 10.796875 12.234375 10.796875 C29.04927713 29.42747078 33.62526033 52.47164404 32.453125 76.81542969 C31.02939386 96.22012243 20.54706813 115.52751687 6.53515625 128.83203125 C-14.18735774 146.5288471 -36.93537082 151.59132391 -63.765625 149.796875 C-79.07514303 148.09247745 -95.32681987 140.12088133 -106.765625 129.796875 C-106.765625 129.136875 -106.765625 128.476875 -106.765625 127.796875 C-108.085625 127.136875 -109.405625 126.476875 -110.765625 125.796875 C-110.765625 125.136875 -110.765625 124.476875 -110.765625 123.796875 C-111.425625 123.796875 -112.085625 123.796875 -112.765625 123.796875 C-129.27319633 105.44018672 -134.6203727 83.31890047 -133.89746094 59.27539062 C-133.07109904 43.739787 -127.33190868 28.96469622 -117.765625 16.796875 C-117.19457031 15.98992187 -116.62351562 15.18296875 -116.03515625 14.3515625 C-103.74401996 -2.36857599 -84.64482991 -12.19256527 -64.48046875 -15.7890625 C-41.15838606 -18.3885796 -18.80871694 -14.6030411 0 0 Z " fill="#010000" transform="translate(392.765625,275.203125)"/>
<path d="M0 0 C0.81210937 0.56460938 1.62421875 1.12921875 2.4609375 1.7109375 C6.52172721 4.63185641 6.52172721 4.63185641 8 6 C8 6.66 8 7.32 8 8 C8.66 8 9.32 8 10 8 C10 8.66 10 9.32 10 10 C10.66 10 11.32 10 12 10 C12 10.66 12 11.32 12 12 C12.66 12 13.32 12 14 12 C30.85575447 32.66632219 35.99768231 54.81609252 34 81 C31.76061897 100.28355885 20.40090343 119.74819926 5.51953125 132.1015625 C-15.4819747 147.92595303 -37.27128939 153.53021604 -63.55517578 150.72753906 C-78.96737555 148.4099644 -92.33565095 141.12018879 -104 131 C-105.485 130.01 -105.485 130.01 -107 129 C-107 128.34 -107 127.68 -107 127 C-107.66 127 -108.32 127 -109 127 C-125.65922154 109.30308285 -132.55350715 87.73125086 -132.21484375 63.7421875 C-131.83512547 52.15252526 -129.1162738 41.43108956 -124 31 C-123.61972656 30.21238281 -123.23945313 29.42476562 -122.84765625 28.61328125 C-112.22082089 8.11100294 -93.81158149 -5.35475156 -72.1875 -12.3125 C-47.96487113 -19.73910161 -20.42546283 -14.35473703 0 0 Z " fill="#F9EDD6" transform="translate(391,101)"/>
<path d="M0 0 C1.18408447 0.00684814 2.36816895 0.01369629 3.58813477 0.02075195 C12.5611418 0.18503865 20.24509447 1.24791287 28.6875 4.4375 C29.70070313 4.77652344 30.71390625 5.11554688 31.7578125 5.46484375 C49.75044449 12.06527402 66.56121074 27.36627056 74.72460938 44.63085938 C83.85604975 65.63140601 86.95908899 89.5437232 78.6875 111.4375 C78.17896484 112.95730469 78.17896484 112.95730469 77.66015625 114.5078125 C71.05972598 132.50044449 55.75872944 149.31121074 38.49414062 157.47460938 C17.49359399 166.60604975 -6.4187232 169.70908899 -28.3125 161.4375 C-29.32570312 161.09847656 -30.33890625 160.75945312 -31.3828125 160.41015625 C-49.40338117 153.79947767 -65.7214309 138.65980258 -74.23535156 121.58691406 C-79.93752759 109.13469877 -82.87248861 96.84470393 -82.75 83.125 C-82.74315186 81.94091553 -82.73630371 80.75683105 -82.72924805 79.53686523 C-82.56496135 70.5638582 -81.50208713 62.87990553 -78.3125 54.4375 C-77.97347656 53.42429688 -77.63445312 52.41109375 -77.28515625 51.3671875 C-70.67447767 33.34661883 -55.53480258 17.0285691 -38.46191406 8.51464844 C-26.00969877 2.81247241 -13.71970393 -0.12248861 0 0 Z " fill="#040403" transform="translate(169.3125,86.5625)"/>
<path d="M0 0 C3.28606391 0.38659575 4.91440389 0.93319328 7.5625 3 C11.20067351 5.1167555 12.89370026 5.29696911 17 5.5 C22.33311168 5.79113761 25.10229716 6.30743941 29 10 C30.375 12.75 30.375 12.75 31 15 C30.360625 14.690625 29.72125 14.38125 29.0625 14.0625 C25.07950896 12.68064597 21.18349151 12.3463457 17 12 C17 12.66 17 13.32 17 14 C14.36 13.67 11.72 13.34 9 13 C10.3006679 15.6013358 11.30080022 15.64188008 14 16.5625 C17.91008174 17.91008174 17.91008174 17.91008174 19 19 C20.051875 19 21.10375 19 22.1875 19 C28.23311677 19 33.93147308 19.62098206 39 23 C40.75574389 26.44693301 41.24243772 29.24132582 41.1953125 33.08203125 C41.18886719 34.01337891 41.18242187 34.94472656 41.17578125 35.90429688 C41.15064453 37.34385742 41.15064453 37.34385742 41.125 38.8125 C41.11597656 39.79154297 41.10695313 40.77058594 41.09765625 41.77929688 C41.07417182 44.18645061 41.0413284 46.59309743 41 49 C41.66 49 42.32 49 43 49 C43.28875 50.11375 43.5775 51.2275 43.875 52.375 C44.69241329 56.00291092 44.69241329 56.00291092 47 58 C47.71706982 59.98248715 48.38290413 61.98415349 49 64 C49.33 64.99 49.66 65.98 50 67 C48.35 67.33 46.7 67.66 45 68 C44.505 69.98 44.505 69.98 44 72 C42.68 72.33 41.36 72.66 40 73 C40 73.66 40 74.32 40 75 C38.02 75.33 36.04 75.66 34 76 C34 73.36 34 70.72 34 68 C31.36 67.67 28.72 67.34 26 67 C25.814375 68.6396875 25.814375 68.6396875 25.625 70.3125 C25 74 25 74 23 77 C22.61500109 78.65549531 22.27206865 80.3222433 22 82 C21.01 82 20.02 82 19 82 C20.11854586 85.72614153 20.11854586 85.72614153 23 88 C23 88.66 23 89.32 23 90 C19.37 90 15.74 90 12 90 C12 90.99 12 91.98 12 93 C17.445 93.99 17.445 93.99 23 95 C23 95.66 23 96.32 23 97 C20.69 97 18.38 97 16 97 C16.66 98.98 17.32 100.96 18 103 C16.515 102.505 16.515 102.505 15 102 C15 101.01 15 100.02 15 99 C6.36662769 96.6677101 6.36662769 96.6677101 -2.3125 97.8125 C-4.32226864 98.97705208 -4.32226864 98.97705208 -5 102 C-6.40456672 102.93637781 -7.81387648 103.86668571 -9.25 104.75390625 C-11.94110066 106.67011408 -14.06924977 109.07826207 -16.2890625 111.51171875 C-18 113 -18 113 -20.1328125 113.515625 C-20.74898438 113.67546875 -21.36515625 113.8353125 -22 114 C-23.3045656 116.99615946 -23.3045656 116.99615946 -24 120 C-24.66 120 -25.32 120 -26 120 C-26 117.36 -26 114.72 -26 112 C-29.17142929 113.36155102 -29.17142929 113.36155102 -32 116 C-32.53698855 119.05872891 -32.35474551 121.92553889 -32 125 C-32.66 125 -33.32 125 -34 125 C-34 124.34 -34 123.68 -34 123 C-36.475 123.495 -36.475 123.495 -39 124 C-39 123.34 -39 122.68 -39 122 C-38.01 121.505 -38.01 121.505 -37 121 C-36.349461 118.91388442 -36.349461 118.91388442 -35.9375 116.5 C-35.09393346 112.09393346 -35.09393346 112.09393346 -34 111 C-33.79224439 109.33795513 -33.63281745 107.66970509 -33.5 106 C-33.11111111 101.11111111 -33.11111111 101.11111111 -32 100 C-30.00041636 99.95919217 -27.99954746 99.95745644 -26 100 C-26 100.33 -26 100.66 -26 101 C-28.475 101.495 -28.475 101.495 -31 102 C-31.495 103.485 -31.495 103.485 -32 105 C-27.545 104.01 -27.545 104.01 -23 103 C-23 103.66 -23 104.32 -23 105 C-25.475 105.495 -25.475 105.495 -28 106 C-28 106.99 -28 107.98 -28 109 C-26.5164999 108.57742724 -25.03823576 108.13643678 -23.5625 107.6875 C-22.73878906 107.44386719 -21.91507812 107.20023437 -21.06640625 106.94921875 C-20.38449219 106.63597656 -19.70257813 106.32273437 -19 106 C-18.505 104.515 -18.505 104.515 -18 103 C-17.34 103 -16.68 103 -16 103 C-17.29299694 105.88437779 -18.65941363 107.87219421 -21 110 C-16.52792762 108.59449154 -14.19950835 106.3635857 -11 103 C-7.37931034 100 -7.37931034 100 -5 100 C-4.34 98.02 -3.68 96.04 -3 94 C-8.76577828 93.3993981 -11.48493427 94.53144755 -16.10546875 98.00390625 C-18 99 -18 99 -20.23828125 98.65234375 C-21.11033203 98.32943359 -21.11033203 98.32943359 -22 98 C-19 96 -19 96 -16 96 C-15.34 94.68 -14.68 93.36 -14 92 C-16.21208293 92 -17.97954407 92.46176715 -20.125 93 C-26.34474562 94.40994234 -31.73743994 94.25251201 -38 93 C-39.485 93.495 -39.485 93.495 -41 94 C-40.74438677 96.3431213 -40.40729228 98.67843403 -40 101 C-39.34 101.33 -38.68 101.66 -38 102 C-38.33 107.94 -38.66 113.88 -39 120 C-40.98 120.99 -40.98 120.99 -43 122 C-43.0825 120.948125 -43.165 119.89625 -43.25 118.8125 C-44.07113 114.63842252 -45.26584565 113.14842016 -48 110 C-48.33 109.0925 -48.66 108.185 -49 107.25 C-49.7539946 104.86845965 -49.7539946 104.86845965 -51.7734375 104.234375 C-54.64041501 103.93258789 -56.07328807 104.70280865 -58.625 106 C-60.9765625 107.1875 -60.9765625 107.1875 -63 108 C-63.66 107.67 -64.32 107.34 -65 107 C-63.02 106.505 -63.02 106.505 -61 106 C-61 105.34 -61 104.68 -61 104 C-60.31035156 103.64808594 -59.62070312 103.29617187 -58.91015625 102.93359375 C-47.71058059 97.77107139 -47.71058059 97.77107139 -40.22265625 88.77734375 C-39.85514153 86.34565026 -39.85514153 86.34565026 -40 83 C-38.35 83 -36.7 83 -35 83 C-35.99 83.495 -35.99 83.495 -37 84 C-37 84.66 -37 85.32 -37 86 C-34.03 85.505 -34.03 85.505 -31 85 C-31 84.34 -31 83.68 -31 83 C-29.35 83 -27.7 83 -26 83 C-26 82.34 -26 81.68 -26 81 C-25.30132812 80.81824219 -24.60265625 80.63648438 -23.8828125 80.44921875 C-22.97273438 80.19785156 -22.06265625 79.94648438 -21.125 79.6875 C-20.22007812 79.44386719 -19.31515625 79.20023437 -18.3828125 78.94921875 C-15.67886681 78.13330148 -15.67886681 78.13330148 -14 75 C-13.34 75 -12.68 75 -12 75 C-11.87625 74.46375 -11.7525 73.9275 -11.625 73.375 C-11.41875 72.59125 -11.2125 71.8075 -11 71 C-10.7525 69.989375 -10.505 68.97875 -10.25 67.9375 C-8.72672173 64.35779607 -7.31582072 63.86009455 -4 62 C-2.19203897 59.43389334 -2.19203897 59.43389334 -1 57 C-1.66 57 -2.32 57 -3 57 C-3 57.66 -3 58.32 -3 59 C-3.66 59 -4.32 59 -5 59 C-5 59.66 -5 60.32 -5 61 C-6.98 61.495 -6.98 61.495 -9 62 C-8.67 61.01 -8.34 60.02 -8 59 C-5.9375 58.3125 -5.9375 58.3125 -4 58 C-4 56.02 -4 54.04 -4 52 C-4.99 51.505 -4.99 51.505 -6 51 C-6.40729228 48.67843403 -6.74438677 46.3431213 -7 44 C-8.03125 44.495 -9.0625 44.99 -10.125 45.5 C-13.57174803 46.95529361 -16.22553093 47.58713963 -20 47 C-22.375 45 -22.375 45 -24 43 C-23.01 42.67 -22.02 42.34 -21 42 C-21.53625 41.401875 -22.0725 40.80375 -22.625 40.1875 C-24.73553816 35.2948888 -23.22794195 31.04427951 -22 26 C-22.99 25.67 -23.98 25.34 -25 25 C-24.34 24.01 -23.68 23.02 -23 22 C-24.64671412 22.30782496 -26.29235576 22.62139234 -27.9375 22.9375 C-28.85402344 23.11152344 -29.77054687 23.28554687 -30.71484375 23.46484375 C-32.95289844 23.77714988 -32.95289844 23.77714988 -34 25 C-36.25415378 25.28289181 -38.50840656 25.4477119 -40.7734375 25.62109375 C-43.27920078 25.89200825 -43.27920078 25.89200825 -46 28 C-45.49895694 23.39040381 -43.71714595 20.99769523 -40.75 17.5 C-39.59757812 16.12328125 -39.59757812 16.12328125 -38.421875 14.71875 C-37.62265625 13.8215625 -36.8234375 12.924375 -36 12 C-35.18015625 11.0409375 -34.3603125 10.081875 -33.515625 9.09375 C-32.27039063 8.05734375 -32.27039063 8.05734375 -31 7 C-27.25727563 7.39284547 -23.90120257 8.69069559 -20.40234375 10.03125 C-19.35369141 10.42957031 -18.30503906 10.82789062 -17.22460938 11.23828125 C-16.13986328 11.65464844 -15.05511719 12.07101563 -13.9375 12.5 C-11.78071199 13.32491714 -9.6231886 14.14791485 -7.46484375 14.96875 C-6.512146 15.33419922 -5.55944824 15.69964844 -4.57788086 16.07617188 C-2.39211867 16.8594775 -0.26253239 17.49107177 2 18 C2.33 17.34 2.66 16.68 3 16 C4.32 16 5.64 16 7 16 C6.01 15.34 5.02 14.68 4 14 C4 13.34 4 12.68 4 12 C3.34 12 2.68 12 2 12 C1.01 10.515 1.01 10.515 0 9 C-0.99 8.67 -1.98 8.34 -3 8 C-3 7.34 -3 6.68 -3 6 C-2.01 6 -1.02 6 0 6 C0 5.34 0 4.68 0 4 C1.65 4.33 3.3 4.66 5 5 C5 4.34 5 3.68 5 3 C3.35 2.34 1.7 1.68 0 1 C0 0.67 0 0.34 0 0 Z " fill="#F4E9D5" transform="translate(358,112)"/>
<path d="M0 0 C2.74179164 2.70031916 3.88152222 4.21784586 4.4609375 8.04296875 C4.43257813 9.08066406 4.40421875 10.11835938 4.375 11.1875 C4.36210937 12.23292969 4.34921875 13.27835938 4.3359375 14.35546875 C4 17 4 17 2 19 C-2.78715252 18.39072604 -7.44861023 15.91476844 -11.90625 14.15625 C-20.08668662 11.0989151 -31.16242423 10.30840655 -39.5625 13.125 C-47.03890631 17.20303981 -51.66757181 22.08204045 -55 30 C-57.91054097 40.6225476 -57.34988718 54.36355726 -52 64 C-47.80048609 70.6098858 -42.28199718 73.57266761 -35 76 C-33.27386403 76.11990928 -31.54275279 76.17529794 -29.8125 76.1875 C-28.91144531 76.20167969 -28.01039063 76.21585937 -27.08203125 76.23046875 C-23.12918426 76.0224449 -23.12918426 76.0224449 -16 74 C-16 66.74 -16 59.48 -16 52 C-22.16323878 52.11860744 -22.16323878 52.11860744 -28.32568359 52.27026367 C-29.47544678 52.28150269 -29.47544678 52.28150269 -30.6484375 52.29296875 C-31.82672119 52.31653442 -31.82672119 52.31653442 -33.02880859 52.34057617 C-34.00454834 52.17199097 -34.00454834 52.17199097 -35 52 C-37.08133467 48.877998 -37.2737822 48.06733011 -37.25 44.5 C-37.25773437 43.33984375 -37.25773437 43.33984375 -37.265625 42.15625 C-37 40 -37 40 -35 37 C-32.2688707 36.69571189 -29.76826141 36.57994361 -27.03515625 36.6015625 C-25.8514872 36.59725723 -25.8514872 36.59725723 -24.64390564 36.59286499 C-22.97361535 36.590822 -21.30330127 36.59636831 -19.63305664 36.60888672 C-17.07578951 36.6249167 -14.52010794 36.60905798 -11.96289062 36.58984375 C-10.34114234 36.59182656 -8.71939504 36.59567102 -7.09765625 36.6015625 C-6.33195816 36.59548981 -5.56626007 36.58941711 -4.77735901 36.5831604 C0.52993994 36.65344584 0.52993994 36.65344584 2.70158386 38.25450134 C4.32292797 40.43412148 4.37973948 41.61702198 4.38818359 44.31616211 C4.39764008 45.18393784 4.40709656 46.05171356 4.4168396 46.94578552 C4.41076691 47.88019974 4.40469421 48.81461395 4.3984375 49.77734375 C4.40130768 50.74023819 4.40417786 51.70313263 4.40713501 52.69520569 C4.4091768 54.73194974 4.40363895 56.76871336 4.39111328 58.80541992 C4.37507892 61.92215924 4.39094929 65.0375983 4.41015625 68.15429688 C4.4081735 70.13281536 4.40432915 72.11133304 4.3984375 74.08984375 C4.40451019 75.02223373 4.41058289 75.95462372 4.4168396 76.91526794 C4.34706493 83.34141142 4.34706493 83.34141142 2.66015625 86.54248047 C0.21477951 88.6893774 -2.2600102 89.31430492 -5.375 90.1875 C-6.49648437 90.51105469 -7.61796875 90.83460938 -8.7734375 91.16796875 C-22.48064999 94.70263734 -40.16194076 95.52091898 -53 89 C-53.87398437 88.5875 -54.74796875 88.175 -55.6484375 87.75 C-67.15151963 81.67029293 -73.011218 70.99395002 -77 59 C-79.99559135 42.82380674 -78.20336445 26.81582345 -69 13 C-54.56578918 -6.41152489 -20.92022586 -13.21792742 0 0 Z " fill="#F8EDD5" transform="translate(199,124)"/>
<path d="M0 0 C0.81210937 0.56460938 1.62421875 1.12921875 2.4609375 1.7109375 C6.52172721 4.63185641 6.52172721 4.63185641 8 6 C8 6.66 8 7.32 8 8 C8.66 8 9.32 8 10 8 C10 8.66 10 9.32 10 10 C10.66 10 11.32 10 12 10 C12 10.66 12 11.32 12 12 C12.66 12 13.32 12 14 12 C30.85575447 32.66632219 35.99768231 54.81609252 34 81 C31.76061897 100.28355885 20.40090343 119.74819926 5.51953125 132.1015625 C-15.4819747 147.92595303 -37.27128939 153.53021604 -63.55517578 150.72753906 C-78.96737555 148.4099644 -92.33565095 141.12018879 -104 131 C-105.485 130.01 -105.485 130.01 -107 129 C-107 128.34 -107 127.68 -107 127 C-107.66 127 -108.32 127 -109 127 C-125.65922154 109.30308285 -132.55350715 87.73125086 -132.21484375 63.7421875 C-131.83512547 52.15252526 -129.1162738 41.43108956 -124 31 C-123.61972656 30.21238281 -123.23945313 29.42476562 -122.84765625 28.61328125 C-112.22082089 8.11100294 -93.81158149 -5.35475156 -72.1875 -12.3125 C-47.96487113 -19.73910161 -20.42546283 -14.35473703 0 0 Z M-109 20 C-119.45672356 33.59002525 -125.4201993 49.04662043 -125.3125 66.25 C-125.30831055 67.17022949 -125.30412109 68.09045898 -125.29980469 69.03857422 C-125.17927164 76.3436461 -124.23101866 83.01968841 -122 90 C-121.70996094 90.95003906 -121.41992188 91.90007812 -121.12109375 92.87890625 C-114.84114518 111.77130382 -100.93693024 126.92059089 -83.55859375 136.2421875 C-78.49917426 138.7413519 -73.44583681 140.54879524 -68 142 C-67.19433594 142.22429687 -66.38867188 142.44859375 -65.55859375 142.6796875 C-46.80443087 147.19057347 -25.66320765 143.12775691 -9.26171875 133.37109375 C-6.74049285 131.6811274 -4.36604822 129.90066022 -2 128 C-1.16855469 127.33226562 -0.33710938 126.66453125 0.51953125 125.9765625 C14.39211394 114.17101594 24.92995316 97.35068548 27 79 C28.37910292 56.56321854 24.9383399 36.511054 10 19 C9.5771875 18.43539062 9.154375 17.87078125 8.71875 17.2890625 C-0.98162993 4.82520224 -18.01392928 -5.07411626 -33.52880859 -7.69824219 C-63.68495585 -11.38061702 -88.82716208 -3.18134593 -109 20 Z " fill="#262422" transform="translate(391,101)"/>
<path d="M0 0 C5.22018652 3.44843447 8.49165524 7.57684263 10.359375 13.55859375 C10.54860571 16.2495658 10.63929905 18.81041001 10.609375 21.49609375 C10.62097656 22.5315332 10.62097656 22.5315332 10.6328125 23.58789062 C10.57467919 38.92055128 -0.60226518 51.59085057 -10.89208984 61.8894043 C-12.29485286 63.27571192 -13.70592841 64.65359232 -15.1171875 66.03125 C-17.27678835 68.19419388 -19.26009871 70.39076676 -21.203125 72.74609375 C-22.0075 73.67421875 -22.811875 74.60234375 -23.640625 75.55859375 C-24.300625 75.55859375 -24.960625 75.55859375 -25.640625 75.55859375 C-25.640625 76.21859375 -25.640625 76.87859375 -25.640625 77.55859375 C-12.770625 77.55859375 0.099375 77.55859375 13.359375 77.55859375 C14.66397414 80.16779203 14.4920344 82.1480199 14.484375 85.05859375 C14.48824219 86.528125 14.48824219 86.528125 14.4921875 88.02734375 C14.359375 90.55859375 14.359375 90.55859375 13.359375 92.55859375 C5.44053816 92.62802777 -2.47817203 92.68137103 -10.39723778 92.71403027 C-14.07417915 92.72970312 -17.75091265 92.75097033 -21.42773438 92.78491211 C-24.97443313 92.81744872 -28.52093164 92.83543456 -32.0677681 92.84322548 C-33.42261535 92.84877933 -34.77745133 92.85962444 -36.13221359 92.87578392 C-38.02602245 92.89747978 -39.92003175 92.89881848 -41.81396484 92.89916992 C-43.43279068 92.90916267 -43.43279068 92.90916267 -45.08432007 92.9193573 C-45.9279007 92.80030533 -46.77148132 92.68125336 -47.640625 92.55859375 C-50.49993457 88.26962939 -50.22703262 84.58935383 -49.640625 79.55859375 C-47.23498519 73.43514696 -42.83789154 69.56906659 -38.16015625 65.03515625 C-35.39607313 62.31821253 -32.85476849 59.4869134 -30.3515625 56.53125 C-29.16943371 55.16829329 -27.94153819 53.8441883 -26.6796875 52.5546875 C-19.62318669 45.21430447 -13.36272451 35.96206746 -12.953125 25.49609375 C-13.25640955 21.11459999 -14.25908375 18.54230662 -17.640625 15.55859375 C-21.86534094 13.44623578 -27.05606308 14.04552003 -31.640625 14.55859375 C-34.41285314 15.61486224 -36.83924834 16.85422284 -39.38671875 18.3671875 C-41.81206506 19.64921631 -43.94140981 20.14442846 -46.640625 20.55859375 C-48.74928938 16.34126499 -48.13820709 11.14126337 -47.640625 6.55859375 C-44.4863548 1.0678271 -37.67340793 -1.37618439 -31.73046875 -3.00927734 C-21.3201384 -5.1618807 -9.5769804 -4.77496339 0 0 Z " fill="#FAEED7" transform="translate(187.640625,295.44140625)"/>
<path d="M0 0 C0.66 0.33 1.32 0.66 2 1 C2 27.4 2 53.8 2 81 C7.61 81 13.22 81 19 81 C20.23184766 83.46369532 20.16732342 85.1894501 20.1875 87.9375 C20.20167969 88.81277344 20.21585937 89.68804687 20.23046875 90.58984375 C20 93 20 93 18 96 C15.67147827 96.36076355 15.67147827 96.36076355 12.72412109 96.34057617 C11.07263565 96.34023628 11.07263565 96.34023628 9.38778687 96.33988953 C8.19505157 96.32440567 7.00231628 96.30892181 5.7734375 96.29296875 C4.55548492 96.28872391 3.33753235 96.28447906 2.08267212 96.28010559 C-1.82010704 96.26326831 -5.72237604 96.22560595 -9.625 96.1875 C-12.26561756 96.17245974 -14.90624319 96.15877019 -17.546875 96.14648438 C-24.03142504 96.11334822 -30.51567608 96.06309861 -37 96 C-38.37252731 93.25494537 -38.13229255 90.99672588 -38.125 87.9375 C-38.12757813 86.85339844 -38.13015625 85.76929688 -38.1328125 84.65234375 C-38 82 -38 82 -37 81 C-30.73 81 -24.46 81 -18 81 C-18 60.87 -18 40.74 -18 20 C-21.96 21.98 -25.92 23.96 -30 26 C-34 28 -34 28 -38 28 C-38.65352518 23.50953866 -38.85386308 19.47368054 -38 15 C-35.08925808 11.23110514 -31.51871876 9.06871284 -27.4375 6.6875 C-25.87286011 5.71973633 -25.87286011 5.71973633 -24.27661133 4.73242188 C-16.05793588 -0.05700126 -9.40458265 -2.20312332 0 0 Z " fill="#F7EBD4" transform="translate(353,291)"/>
<path d="M0 0 C9.54635844 7.13261086 18.79945151 15.97806821 22.17724609 27.70507812 C20.69224609 28.20007813 20.69224609 28.20007813 19.17724609 28.70507812 C19.17724609 28.04507813 19.17724609 27.38507813 19.17724609 26.70507812 C18.31357422 26.60710937 17.44990234 26.50914062 16.56005859 26.40820312 C12.85134906 25.63733971 10.30942475 24.37106557 7.05224609 22.45507812 C6.03904297 21.87242187 5.02583984 21.28976563 3.98193359 20.68945312 C1.07898504 18.63555638 -0.63768076 16.47948635 -2.82275391 13.70507812 C-6.01702314 11.52056755 -8.76022499 11.4864098 -12.57275391 11.39257812 C-17.86338269 11.05625453 -21.07076263 9.91278471 -25.29931641 6.76367188 C-26.78730186 5.51486728 -26.78730186 5.51486728 -28.82275391 5.70507812 C-27.50275391 6.36507812 -26.18275391 7.02507812 -24.82275391 7.70507812 C-24.82275391 8.36507812 -24.82275391 9.02507812 -24.82275391 9.70507812 C-26.47275391 9.37507813 -28.12275391 9.04507813 -29.82275391 8.70507812 C-29.82275391 9.36507812 -29.82275391 10.02507812 -29.82275391 10.70507812 C-30.81275391 10.70507812 -31.80275391 10.70507812 -32.82275391 10.70507812 C-32.82275391 11.36507812 -32.82275391 12.02507812 -32.82275391 12.70507812 C-32.18337891 12.80820313 -31.54400391 12.91132812 -30.88525391 13.01757812 C-30.20462891 13.24445313 -29.52400391 13.47132812 -28.82275391 13.70507812 C-28.32775391 15.19007812 -28.32775391 15.19007812 -27.82275391 16.70507812 C-27.16275391 16.70507812 -26.50275391 16.70507812 -25.82275391 16.70507812 C-25.82275391 17.36507812 -25.82275391 18.02507812 -25.82275391 18.70507812 C-24.50275391 19.36507812 -23.18275391 20.02507812 -21.82275391 20.70507812 C-21.82275391 21.03507812 -21.82275391 21.36507812 -21.82275391 21.70507812 C-23.47275391 21.70507812 -25.12275391 21.70507812 -26.82275391 21.70507812 C-26.82275391 21.04507813 -26.82275391 20.38507813 -26.82275391 19.70507812 C-27.44021484 19.52332031 -28.05767578 19.3415625 -28.69384766 19.15429688 C-38.67765934 16.1910651 -48.24055165 12.80710379 -57.82275391 8.70507812 C-57.82275391 8.04507813 -57.82275391 7.38507813 -57.82275391 6.70507812 C-55.18275391 7.03507812 -52.54275391 7.36507812 -49.82275391 7.70507812 C-54.44275391 6.05507812 -59.06275391 4.40507813 -63.82275391 2.70507812 C-63.82275391 2.04507813 -63.82275391 1.38507813 -63.82275391 0.70507812 C-67.4269037 0.67607358 -71.03102352 0.65827795 -74.63525391 0.64257812 C-75.65941406 0.63419922 -76.68357422 0.62582031 -77.73876953 0.6171875 C-78.72167969 0.61396484 -79.70458984 0.61074219 -80.71728516 0.60742188 C-81.62325439 0.60218506 -82.52922363 0.59694824 -83.46264648 0.59155273 C-85.97559429 0.60586831 -85.97559429 0.60586831 -88.82275391 1.70507812 C-89.15275391 2.36507812 -89.48275391 3.02507812 -89.82275391 3.70507812 C-89.82275391 3.04507813 -89.82275391 2.38507813 -89.82275391 1.70507812 C-95.04601367 6.16859102 -100.03198362 10.77956743 -104.82275391 15.70507812 C-104.82275391 12.05414495 -103.67281108 11.12217528 -101.21728516 8.58032227 C-100.43417969 7.80676392 -100.43417969 7.80676392 -99.63525391 7.01757812 C-99.09642578 6.48447021 -98.55759766 5.9513623 -98.00244141 5.40209961 C-71.01293967 -20.43037527 -29.70874401 -21.10570295 0 0 Z " fill="#F8ECD5" transform="translate(387.82275390625,107.294921875)"/>
<path d="M0 0 C3.28606391 0.38659575 4.91440389 0.93319328 7.5625 3 C11.20067351 5.1167555 12.89370026 5.29696911 17 5.5 C22.33311168 5.79113761 25.10229716 6.30743941 29 10 C30.375 12.75 30.375 12.75 31 15 C30.360625 14.690625 29.72125 14.38125 29.0625 14.0625 C25.07950896 12.68064597 21.18349151 12.3463457 17 12 C17 12.66 17 13.32 17 14 C14.36 13.67 11.72 13.34 9 13 C10.3006679 15.6013358 11.30080022 15.64188008 14 16.5625 C17.91008174 17.91008174 17.91008174 17.91008174 19 19 C20.051875 19 21.10375 19 22.1875 19 C28.23311677 19 33.93147308 19.62098206 39 23 C40.75574389 26.44693301 41.24243772 29.24132582 41.1953125 33.08203125 C41.18886719 34.01337891 41.18242187 34.94472656 41.17578125 35.90429688 C41.15064453 37.34385742 41.15064453 37.34385742 41.125 38.8125 C41.11597656 39.79154297 41.10695313 40.77058594 41.09765625 41.77929688 C41.07417182 44.18645061 41.0413284 46.59309743 41 49 C41.66 49 42.32 49 43 49 C43 51.31 43 53.62 43 56 C42.01 56 41.02 56 40 56 C40 56.99 40 57.98 40 59 C35.545 59.495 35.545 59.495 31 60 C31 59.01 31 58.02 31 57 C29.02 57 27.04 57 25 57 C25 55.68 25 54.36 25 53 C24.34 53 23.68 53 23 53 C23 52.01 23 51.02 23 50 C23.66 50 24.32 50 25 50 C25.33 50.66 25.66 51.32 26 52 C27.485 52.495 27.485 52.495 29 53 C29 52.01 29 51.02 29 50 C28.34 50 27.68 50 27 50 C27 48.35 27 46.7 27 45 C26.278125 45.185625 25.55625 45.37125 24.8125 45.5625 C22 46 22 46 19.4375 45.4375 C16.54137683 44.91768302 15.44300601 45.46181103 13 47 C13 46.34 13 45.68 13 45 C13.66 45 14.32 45 15 45 C15 44.01 15 43.02 15 42 C15.66 41.67 16.32 41.34 17 41 C17 40.34 17 39.68 17 39 C14.03 38.505 14.03 38.505 11 38 C11 37.34 11 36.68 11 36 C11.99 36 12.98 36 14 36 C14 34.68 14 33.36 14 32 C12.68 31.67 11.36 31.34 10 31 C10 30.34 10 29.68 10 29 C9.46375 28.731875 8.9275 28.46375 8.375 28.1875 C5.58333333 26.79166667 2.79166667 25.39583333 0 24 C0 23.34 0 22.68 0 22 C-1.32 22 -2.64 22 -4 22 C-4 21.34 -4 20.68 -4 20 C-4.93972656 19.90912109 -4.93972656 19.90912109 -5.8984375 19.81640625 C-7.12433594 19.69072266 -7.12433594 19.69072266 -8.375 19.5625 C-9.59316406 19.44068359 -9.59316406 19.44068359 -10.8359375 19.31640625 C-13 19 -13 19 -15 18 C-15 18.66 -15 19.32 -15 20 C-13.35 20.33 -11.7 20.66 -10 21 C-10.33 22.32 -10.66 23.64 -11 25 C-11.99 25 -12.98 25 -14 25 C-13.505 26.485 -13.505 26.485 -13 28 C-18.625 29.125 -18.625 29.125 -22 28 C-22 27.34 -22 26.68 -22 26 C-22.99 25.67 -23.98 25.34 -25 25 C-24.34 24.01 -23.68 23.02 -23 22 C-24.64671412 22.30782496 -26.29235576 22.62139234 -27.9375 22.9375 C-28.85402344 23.11152344 -29.77054687 23.28554687 -30.71484375 23.46484375 C-32.95289844 23.77714988 -32.95289844 23.77714988 -34 25 C-36.25415378 25.28289181 -38.50840656 25.4477119 -40.7734375 25.62109375 C-43.27920078 25.89200825 -43.27920078 25.89200825 -46 28 C-45.49895694 23.39040381 -43.71714595 20.99769523 -40.75 17.5 C-39.98171875 16.5821875 -39.2134375 15.664375 -38.421875 14.71875 C-37.22304688 13.37296875 -37.22304688 13.37296875 -36 12 C-35.18015625 11.0409375 -34.3603125 10.081875 -33.515625 9.09375 C-32.68546875 8.4028125 -31.8553125 7.711875 -31 7 C-27.25727563 7.39284547 -23.90120257 8.69069559 -20.40234375 10.03125 C-19.35369141 10.42957031 -18.30503906 10.82789062 -17.22460938 11.23828125 C-16.13986328 11.65464844 -15.05511719 12.07101563 -13.9375 12.5 C-11.78071199 13.32491714 -9.6231886 14.14791485 -7.46484375 14.96875 C-6.512146 15.33419922 -5.55944824 15.69964844 -4.57788086 16.07617188 C-2.39211867 16.8594775 -0.26253239 17.49107177 2 18 C2.33 17.34 2.66 16.68 3 16 C4.32 16 5.64 16 7 16 C6.01 15.34 5.02 14.68 4 14 C4 13.34 4 12.68 4 12 C3.34 12 2.68 12 2 12 C1.34 11.01 0.68 10.02 0 9 C-0.99 8.67 -1.98 8.34 -3 8 C-3 7.34 -3 6.68 -3 6 C-2.01 6 -1.02 6 0 6 C0 5.34 0 4.68 0 4 C2.475 4.495 2.475 4.495 5 5 C5 4.34 5 3.68 5 3 C2.525 2.01 2.525 2.01 0 1 C0 0.67 0 0.34 0 0 Z " fill="#0B0B0B" transform="translate(358,112)"/>
<path d="M0 0 C1.32 0.33 2.64 0.66 4 1 C4.12375 1.94875 4.2475 2.8975 4.375 3.875 C4.71687177 7.08667191 4.71687177 7.08667191 7 9 C5.33333333 14 3.66666667 19 2 24 C1.01 24 0.02 24 -1 24 C0.11854586 27.72614153 0.11854586 27.72614153 3 30 C3 30.66 3 31.32 3 32 C-0.63 32 -4.26 32 -8 32 C-8 32.99 -8 33.98 -8 35 C-4.37 35.66 -0.74 36.32 3 37 C3 37.66 3 38.32 3 39 C0.69 39 -1.62 39 -4 39 C-3.01 41.97 -3.01 41.97 -2 45 C-3.485 44.505 -3.485 44.505 -5 44 C-5 43.01 -5 42.02 -5 41 C-13.63337231 38.6677101 -13.63337231 38.6677101 -22.3125 39.8125 C-24.32226864 40.97705208 -24.32226864 40.97705208 -25 44 C-26.40456672 44.93637781 -27.81387648 45.86668571 -29.25 46.75390625 C-31.94110066 48.67011408 -34.06924977 51.07826207 -36.2890625 53.51171875 C-38 55 -38 55 -40.1328125 55.515625 C-40.74898438 55.67546875 -41.36515625 55.8353125 -42 56 C-43.3045656 58.99615946 -43.3045656 58.99615946 -44 62 C-44.66 62 -45.32 62 -46 62 C-46 59.36 -46 56.72 -46 54 C-49.17142929 55.36155102 -49.17142929 55.36155102 -52 58 C-52.53698855 61.05872891 -52.35474551 63.92553889 -52 67 C-52.66 67 -53.32 67 -54 67 C-54 66.34 -54 65.68 -54 65 C-56.475 65.495 -56.475 65.495 -59 66 C-59 65.34 -59 64.68 -59 64 C-58.01 63.505 -58.01 63.505 -57 63 C-56.349461 60.91388442 -56.349461 60.91388442 -55.9375 58.5 C-55.09393346 54.09393346 -55.09393346 54.09393346 -54 53 C-53.79224439 51.33795513 -53.63281745 49.66970509 -53.5 48 C-53.11111111 43.11111111 -53.11111111 43.11111111 -52 42 C-50.00041636 41.95919217 -47.99954746 41.95745644 -46 42 C-46 42.33 -46 42.66 -46 43 C-48.475 43.495 -48.475 43.495 -51 44 C-51.33 44.99 -51.66 45.98 -52 47 C-49.03 46.34 -46.06 45.68 -43 45 C-43 45.66 -43 46.32 -43 47 C-45.475 47.495 -45.475 47.495 -48 48 C-48 48.99 -48 49.98 -48 51 C-46.5164999 50.57742724 -45.03823576 50.13643678 -43.5625 49.6875 C-42.73878906 49.44386719 -41.91507812 49.20023438 -41.06640625 48.94921875 C-40.38449219 48.63597656 -39.70257813 48.32273438 -39 48 C-38.67 47.01 -38.34 46.02 -38 45 C-37.34 45 -36.68 45 -36 45 C-37.29299694 47.88437779 -38.65941363 49.87219421 -41 52 C-36.52792762 50.59449154 -34.19950835 48.3635857 -31 45 C-27.37931034 42 -27.37931034 42 -25 42 C-24.34 40.02 -23.68 38.04 -23 36 C-28.76577828 35.3993981 -31.48493427 36.53144755 -36.10546875 40.00390625 C-38 41 -38 41 -40.23828125 40.65234375 C-40.81964844 40.43707031 -41.40101563 40.22179687 -42 40 C-39 38 -39 38 -36 38 C-35.34 36.68 -34.68 35.36 -34 34 C-36.21208293 34 -37.97954407 34.46176715 -40.125 35 C-46.34474562 36.40994234 -51.73743994 36.25251201 -58 35 C-59.485 35.495 -59.485 35.495 -61 36 C-60.74438677 38.3431213 -60.40729228 40.67843403 -60 43 C-59.34 43.33 -58.68 43.66 -58 44 C-58.33 49.94 -58.66 55.88 -59 62 C-60.32 62.66 -61.64 63.32 -63 64 C-63.0825 62.948125 -63.165 61.89625 -63.25 60.8125 C-64.07113 56.63842252 -65.26584565 55.14842016 -68 52 C-68.33 51.0925 -68.66 50.185 -69 49.25 C-69.7539946 46.86845965 -69.7539946 46.86845965 -71.7734375 46.234375 C-74.64041501 45.93258789 -76.07328807 46.70280865 -78.625 48 C-80.9765625 49.1875 -80.9765625 49.1875 -83 50 C-83.66 49.67 -84.32 49.34 -85 49 C-83.02 48.505 -83.02 48.505 -81 48 C-81 47.34 -81 46.68 -81 46 C-80.31035156 45.64808594 -79.62070312 45.29617187 -78.91015625 44.93359375 C-67.71058059 39.77107139 -67.71058059 39.77107139 -60.22265625 30.77734375 C-59.85514153 28.34565026 -59.85514153 28.34565026 -60 25 C-58.35 25 -56.7 25 -55 25 C-55.66 25.33 -56.32 25.66 -57 26 C-57 26.66 -57 27.32 -57 28 C-55.02 27.67 -53.04 27.34 -51 27 C-51 26.34 -51 25.68 -51 25 C-49.35 25 -47.7 25 -46 25 C-46 24.34 -46 23.68 -46 23 C-45.30132812 22.81824219 -44.60265625 22.63648438 -43.8828125 22.44921875 C-42.97273438 22.19785156 -42.06265625 21.94648438 -41.125 21.6875 C-39.76761719 21.32205078 -39.76761719 21.32205078 -38.3828125 20.94921875 C-35.67886681 20.13330148 -35.67886681 20.13330148 -34 17 C-33.34 17 -32.68 17 -32 17 C-31.87625 16.46375 -31.7525 15.9275 -31.625 15.375 C-31.41875 14.59125 -31.2125 13.8075 -31 13 C-30.7525 11.989375 -30.505 10.97875 -30.25 9.9375 C-28.74709836 6.40568115 -27.40685989 5.61825845 -24 4 C-23.34 3.67 -22.68 3.34 -22 3 C-23.13510247 5.88141396 -24.31827274 8.72566185 -25.5625 11.5625 C-26.62119592 14.09416417 -27.46604122 16.33020609 -28 19 C-24.32372574 17.18303596 -24.32372574 17.18303596 -22.0625 13.9375 C-21 12 -21 12 -18.0625 10.625 C-16.5465625 10.315625 -16.5465625 10.315625 -15 10 C-14.01 10.66 -13.02 11.32 -12 12 C-11.67 10.35 -11.34 8.7 -11 7 C-9.09681116 9.85478326 -8.5380901 11.41941308 -7.875 14.6875 C-7.70742188 15.49574219 -7.53984375 16.30398437 -7.3671875 17.13671875 C-7.24601562 17.75160156 -7.12484375 18.36648437 -7 19 C-3.06924356 18.42547254 -3.06924356 18.42547254 0 16 C0.6425235 13.93125966 0.6425235 13.93125966 1 12 C0.34 12 -0.32 12 -1 12 C-0.67 8.04 -0.34 4.08 0 0 Z " fill="#0D0D0D" transform="translate(378,170)"/>
<path d="M0 0 C0 1.65 0 3.3 0 5 C0.66 5 1.32 5 2 5 C2 5.99 2 6.98 2 8 C0.68 7.67 -0.64 7.34 -2 7 C-2 6.34 -2 5.68 -2 5 C-2.66 5 -3.32 5 -4 5 C-4 5.99 -4 6.98 -4 8 C-3.34 8 -2.68 8 -2 8 C-2 9.32 -2 10.64 -2 12 C-0.02 12 1.96 12 4 12 C4 12.99 4 13.98 4 15 C8.455 14.505 8.455 14.505 13 14 C13 13.01 13 12.02 13 11 C14.8125 10.3125 14.8125 10.3125 17 10 C20.29511938 12.15450113 20.93918726 15.36292776 22 19 C22.495 20.485 22.495 20.485 23 22 C21.35 22.33 19.7 22.66 18 23 C17.67 24.32 17.34 25.64 17 27 C15.68 27.33 14.36 27.66 13 28 C13 28.66 13 29.32 13 30 C10.03 30.495 10.03 30.495 7 31 C7 28.36 7 25.72 7 23 C6.36191406 22.86722656 5.72382813 22.73445313 5.06640625 22.59765625 C4.24011719 22.42105469 3.41382813 22.24445313 2.5625 22.0625 C1.73878906 21.88847656 0.91507812 21.71445313 0.06640625 21.53515625 C-2 21 -2 21 -3 20 C-3.04080783 18.00041636 -3.04254356 15.99954746 -3 14 C-3.99 14 -4.98 14 -6 14 C-6.144375 15.258125 -6.28875 16.51625 -6.4375 17.8125 C-6.73748686 20.42667123 -7.15813297 22.47439892 -8 25 C-7.34 25 -6.68 25 -6 25 C-6.36712972 27.71675995 -6.72744599 29.61063713 -8.3125 31.875 C-10 33 -10 33 -11.96484375 32.91796875 C-14 32 -14 32 -15.265625 29.49609375 C-15.59046875 28.48675781 -15.9153125 27.47742188 -16.25 26.4375 C-16.58515625 25.42558594 -16.9203125 24.41367188 -17.265625 23.37109375 C-17.62914062 22.19740234 -17.62914062 22.19740234 -18 21 C-18.33 22.32 -18.66 23.64 -19 25 C-19.7425 24.79375 -20.485 24.5875 -21.25 24.375 C-24.43151585 23.94115693 -25.43444962 24.11859639 -28 26 C-28.495 26.845625 -28.99 27.69125 -29.5 28.5625 C-31 31 -31 31 -33.1875 31.8125 C-33.785625 31.874375 -34.38375 31.93625 -35 32 C-34.41665334 27.21655736 -32.98916497 23.37616294 -31 19 C-30.32723284 17.3357865 -29.65793165 15.67013418 -29 14 C-28.34 14 -27.68 14 -27 14 C-26.67 12.35 -26.34 10.7 -26 9 C-24.68 9.33 -23.36 9.66 -22 10 C-22 12.31 -22 14.62 -22 17 C-20.68 17 -19.36 17 -18 17 C-17.731875 16.38125 -17.46375 15.7625 -17.1875 15.125 C-16 13 -16 13 -13 11 C-11.68 11 -10.36 11 -9 11 C-9 9.68 -9 8.36 -9 7 C-7.68 7 -6.36 7 -5 7 C-5 6.34 -5 5.68 -5 5 C-5.99 4.67 -6.98 4.34 -8 4 C-5 3 -5 3 -2 3 C-2.66 2.34 -3.32 1.68 -4 1 C-2 0 -2 0 0 0 Z " fill="#A5A4A2" transform="translate(385,157)"/>
<path d="M0 0 C0.33 0 0.66 0 1 0 C0.46179265 5.274432 -0.57335085 9.33336702 -3 14 C-3.99 14.33 -4.98 14.66 -6 15 C-7.87103847 18.23833582 -9.29228053 21.31985875 -10 25 C-11.65 25.33 -13.3 25.66 -15 26 C-14.34 25.67 -13.68 25.34 -13 25 C-13 24.34 -13 23.68 -13 23 C-14.65 22.67 -16.3 22.34 -18 22 C-17.67 23.65 -17.34 25.3 -17 27 C-21.625 30 -21.625 30 -25 30 C-25 30.66 -25 31.32 -25 32 C-24.16855469 31.98839844 -23.33710938 31.97679687 -22.48046875 31.96484375 C-21.39378906 31.95582031 -20.30710937 31.94679687 -19.1875 31.9375 C-18.10855469 31.92589844 -17.02960938 31.91429687 -15.91796875 31.90234375 C-13 32 -13 32 -10 33 C-10.33 33.66 -10.66 34.32 -11 35 C-11.87398438 34.90912109 -11.87398438 34.90912109 -12.765625 34.81640625 C-19.50409957 34.12772567 -26.24850516 33.54522381 -33 33 C-33.33 33.66 -33.66 34.32 -34 35 C-34 34.01 -34 33.02 -34 32 C-31.69 32 -29.38 32 -27 32 C-27 31.34 -27 30.68 -27 30 C-27.886875 30.04125 -28.77375 30.0825 -29.6875 30.125 C-32.97277013 30.00102754 -35.05449295 29.38612096 -38 28 C-38 27.01 -38 26.02 -38 25 C-35.01405576 23.50702788 -32.29146376 23.88244772 -29 24 C-28.34 24.33 -27.68 24.66 -27 25 C-27 24.34 -27 23.68 -27 23 C-28.32 22.34 -29.64 21.68 -31 21 C-31 19.68 -31 18.36 -31 17 C-30.01 17 -29.02 17 -28 17 C-28.061875 16.278125 -28.12375 15.55625 -28.1875 14.8125 C-27.9622609 11.43391345 -26.77629238 9.8420678 -25 7 C-24.29329272 4.30745009 -24.29329272 4.30745009 -24 2 C-21.36 2.33 -18.72 2.66 -16 3 C-16 5.64 -16 8.28 -16 11 C-14.02 10.67 -12.04 10.34 -10 10 C-10 9.34 -10 8.68 -10 8 C-8.68 7.67 -7.36 7.34 -6 7 C-5.67 5.35 -5.34 3.7 -5 2 C-3.35 2 -1.7 2 0 2 C0 1.34 0 0.68 0 0 Z " fill="#EDE4D1" transform="translate(408,177)"/>
<path d="M0 0 C3.74272437 0.39284547 7.09879743 1.69069559 10.59765625 3.03125 C12.17063477 3.62873047 12.17063477 3.62873047 13.77539062 4.23828125 C14.86013672 4.65464844 15.94488281 5.07101563 17.0625 5.5 C19.21928801 6.32491714 21.3768114 7.14791485 23.53515625 7.96875 C24.487854 8.33419922 25.44055176 8.69964844 26.42211914 9.07617188 C28.60788133 9.8594775 30.73746761 10.49107177 33 11 C33.495 13.475 33.495 13.475 34 16 C33.01 16.33 32.02 16.66 31 17 C31 16.34 31 15.68 31 15 C29.68 15 28.36 15 27 15 C27 14.34 27 13.68 27 13 C26.37351562 12.93941406 25.74703125 12.87882813 25.1015625 12.81640625 C24.28429687 12.73261719 23.46703125 12.64882812 22.625 12.5625 C21.40683594 12.44068359 21.40683594 12.44068359 20.1640625 12.31640625 C18 12 18 12 16 11 C16 11.66 16 12.32 16 13 C18.475 13.495 18.475 13.495 21 14 C20.67 15.32 20.34 16.64 20 18 C19.01 18 18.02 18 17 18 C17.495 19.485 17.495 19.485 18 21 C12.375 22.125 12.375 22.125 9 21 C9 20.34 9 19.68 9 19 C8.01 18.67 7.02 18.34 6 18 C6.66 17.01 7.32 16.02 8 15 C6.35328588 15.30782496 4.70764424 15.62139234 3.0625 15.9375 C2.14597656 16.11152344 1.22945313 16.28554687 0.28515625 16.46484375 C-1.95289844 16.77714988 -1.95289844 16.77714988 -3 18 C-5.25415378 18.28289181 -7.50840656 18.4477119 -9.7734375 18.62109375 C-12.27920078 18.89200825 -12.27920078 18.89200825 -15 21 C-14.49895694 16.39040381 -12.71714595 13.99769523 -9.75 10.5 C-8.98171875 9.5821875 -8.2134375 8.664375 -7.421875 7.71875 C-6.62265625 6.8215625 -5.8234375 5.924375 -5 5 C-4.18015625 4.0409375 -3.3603125 3.081875 -2.515625 2.09375 C-1.68546875 1.4028125 -0.8553125 0.711875 0 0 Z " fill="#0E0E0E" transform="translate(327,119)"/>
<path d="M0 0 C3.63 0.66 7.26 1.32 11 2 C11 2.66 11 3.32 11 4 C12.32 4 13.64 4 15 4 C15 4.66 15 5.32 15 6 C15.9075 6.268125 16.815 6.53625 17.75 6.8125 C20.72991834 7.90131632 22.68590359 8.86391101 25 11 C25 11.66 25 12.32 25 13 C26.32 13.33 27.64 13.66 29 14 C29 14.99 29 15.98 29 17 C23.375 17.25 23.375 17.25 20 15 C15.7790775 14.63296326 12.82257691 15.20114028 9 17 C11.97 16.67 14.94 16.34 18 16 C18 17.32 18 18.64 18 20 C15.03 19.67 12.06 19.34 9 19 C9.33 20.32 9.66 21.64 10 23 C9.01 23 8.02 23 7 23 C7 23.66 7 24.32 7 25 C4.51245214 26.24377393 2.77344699 26.13306235 0 26.125 C-0.886875 26.12757813 -1.77375 26.13015625 -2.6875 26.1328125 C-5 26 -5 26 -7 25 C-7.33 25.66 -7.66 26.32 -8 27 C-8.33 26.01 -8.66 25.02 -9 24 C-8.01 24 -7.02 24 -6 24 C-6.53625 23.360625 -7.0725 22.72125 -7.625 22.0625 C-9.5987205 17.66648617 -8.3552516 14.47525529 -7 10 C-6.05125 10.020625 -5.1025 10.04125 -4.125 10.0625 C-1.09333717 10.22551826 -1.09333717 10.22551826 1 9 C1 8.34 1 7.68 1 7 C1.99 6.67 2.98 6.34 4 6 C4 5.01 4 4.02 4 3 C2.68 2.67 1.36 2.34 0 2 C0 1.34 0 0.68 0 0 Z " fill="#F1E7D2" transform="translate(343,130)"/>
<path d="M0 0 C0.99 0.33 1.98 0.66 3 1 C0.34345343 4.73884332 -1.58110387 6.64978174 -6 8 C-2.5775021 7.59735319 -0.94944945 6.96263655 1.875 4.875 C5.7689625 2.5386225 7.67915217 2.96299652 12 4 C11.45285711 7.83000023 9.89486792 9.50719706 7 12 C6.195625 12.474375 5.39125 12.94875 4.5625 13.4375 C1.82741141 14.96035551 1.82741141 14.96035551 -0.5625 17.625 C-3 20 -3 20 -7 21 C-5.02 18.36 -3.04 15.72 -1 13 C-1.7425 13.61875 -2.485 14.2375 -3.25 14.875 C-6.65845845 17.50880881 -8.66404139 19 -13 19 C-13 18.01 -13 17.02 -13 16 C-11.35 15.67 -9.7 15.34 -8 15 C-8 14.34 -8 13.68 -8 13 C-10.97 13.66 -13.94 14.32 -17 15 C-16.67 13.68 -16.34 12.36 -16 11 C-16.33 11 -16.66 11 -17 11 C-17.04898437 11.68707031 -17.09796875 12.37414062 -17.1484375 13.08203125 C-17.22320312 13.98308594 -17.29796875 14.88414062 -17.375 15.8125 C-17.44460938 16.70582031 -17.51421875 17.59914062 -17.5859375 18.51953125 C-18 21 -18 21 -20 24 C-20.165 25.19625 -20.33 26.3925 -20.5 27.625 C-20.665 28.73875 -20.83 29.8525 -21 31 C-21.66 31.33 -22.32 31.66 -23 32 C-25 30 -25 30 -25.01171875 26.375 C-24.91453421 24.91590061 -24.80598754 23.45752412 -24.6875 22 C-24.63916016 21.26265625 -24.59082031 20.5253125 -24.54101562 19.765625 C-24.14655517 14.29311034 -24.14655517 14.29311034 -23 12 C-23.99 11.67 -24.98 11.34 -26 11 C-26.1875 7.625 -26.1875 7.625 -26 4 C-23 2 -23 2 -20.8125 2.375 C-19.884375 2.58125 -18.95625 2.7875 -18 3 C-12.06674697 3.29666265 -6.70755828 2.71101856 -1 1 C-0.67 0.67 -0.34 0.34 0 0 Z " fill="#E9DFCB" transform="translate(343,202)"/>
<path d="M0 0 C0 1.65 0 3.3 0 5 C0.66 5 1.32 5 2 5 C2 5.99 2 6.98 2 8 C0.68 7.67 -0.64 7.34 -2 7 C-2 6.34 -2 5.68 -2 5 C-2.66 5 -3.32 5 -4 5 C-4 5.99 -4 6.98 -4 8 C-3.34 8 -2.68 8 -2 8 C-2 9.32 -2 10.64 -2 12 C-0.02 12 1.96 12 4 12 C4 12.99 4 13.98 4 15 C8.455 14.505 8.455 14.505 13 14 C13 13.01 13 12.02 13 11 C14.8125 10.3125 14.8125 10.3125 17 10 C20.29511938 12.15450113 20.93918726 15.36292776 22 19 C22.33 19.99 22.66 20.98 23 22 C21.35 22.33 19.7 22.66 18 23 C17.67 24.32 17.34 25.64 17 27 C15.68 27.33 14.36 27.66 13 28 C13 28.66 13 29.32 13 30 C11.02 30.33 9.04 30.66 7 31 C7 28.36 7 25.72 7 23 C6.36191406 22.86722656 5.72382813 22.73445313 5.06640625 22.59765625 C4.24011719 22.42105469 3.41382813 22.24445313 2.5625 22.0625 C1.32693359 21.80146484 1.32693359 21.80146484 0.06640625 21.53515625 C-2 21 -2 21 -3 20 C-3.04080783 18.00041636 -3.04254356 15.99954746 -3 14 C-3.66 13.67 -4.32 13.34 -5 13 C-4.34 13 -3.68 13 -3 13 C-3 11.68 -3 10.36 -3 9 C-4.65 9 -6.3 9 -8 9 C-8.33 8.34 -8.66 7.68 -9 7 C-7.68 7 -6.36 7 -5 7 C-5 6.34 -5 5.68 -5 5 C-5.99 4.67 -6.98 4.34 -8 4 C-5 3 -5 3 -2 3 C-2.66 2.34 -3.32 1.68 -4 1 C-2 0 -2 0 0 0 Z " fill="#6A6866" transform="translate(385,157)"/>
<path d="M0 0 C0.33 0 0.66 0 1 0 C1 2.64 1 5.28 1 8 C1.99 8.33 2.98 8.66 4 9 C2.35 9.66 0.7 10.32 -1 11 C-0.74438677 13.3431213 -0.40729228 15.67843403 0 18 C0.66 18.33 1.32 18.66 2 19 C1.67 24.94 1.34 30.88 1 37 C-0.32 37.66 -1.64 38.32 -3 39 C-3.0825 37.948125 -3.165 36.89625 -3.25 35.8125 C-4.07113 31.63842252 -5.26584565 30.14842016 -8 27 C-8.33 26.0925 -8.66 25.185 -9 24.25 C-9.7539946 21.86845965 -9.7539946 21.86845965 -11.7734375 21.234375 C-14.64041501 20.93258789 -16.07328807 21.70280865 -18.625 23 C-20.9765625 24.1875 -20.9765625 24.1875 -23 25 C-23.66 24.67 -24.32 24.34 -25 24 C-23.68 23.67 -22.36 23.34 -21 23 C-21 22.34 -21 21.68 -21 21 C-20.31035156 20.64808594 -19.62070312 20.29617187 -18.91015625 19.93359375 C-7.71058059 14.77107139 -7.71058059 14.77107139 -0.22265625 5.77734375 C0.14485847 3.34565026 0.14485847 3.34565026 0 0 Z " fill="#3B3A38" transform="translate(318,195)"/>
<path d="M0 0 C0.66 0.33 1.32 0.66 2 1 C4.3329866 1.04022391 6.66706666 1.04320247 9 1 C9 1.33 9 1.66 9 2 C7.906875 2.309375 6.81375 2.61875 5.6875 2.9375 C3.44592006 3.58337897 1.2130649 4.2623117 -1 5 C-1.33 5.99 -1.66 6.98 -2 8 C-3.40456672 8.93637781 -4.81387648 9.86668571 -6.25 10.75390625 C-8.94110066 12.67011408 -11.06924977 15.07826207 -13.2890625 17.51171875 C-15 19 -15 19 -17.1328125 19.515625 C-17.74898438 19.67546875 -18.36515625 19.8353125 -19 20 C-20.3045656 22.99615946 -20.3045656 22.99615946 -21 26 C-21.66 26 -22.32 26 -23 26 C-23 23.36 -23 20.72 -23 18 C-26.17142929 19.36155102 -26.17142929 19.36155102 -29 22 C-29.53698855 25.05872891 -29.35474551 27.92553889 -29 31 C-29.66 31 -30.32 31 -31 31 C-31 30.34 -31 29.68 -31 29 C-32.65 29.33 -34.3 29.66 -36 30 C-36 29.34 -36 28.68 -36 28 C-35.34 27.67 -34.68 27.34 -34 27 C-33.349461 24.91388442 -33.349461 24.91388442 -32.9375 22.5 C-32.09393346 18.09393346 -32.09393346 18.09393346 -31 17 C-30.79224439 15.33795513 -30.63281745 13.66970509 -30.5 12 C-30.11111111 7.11111111 -30.11111111 7.11111111 -29 6 C-27.00041636 5.95919217 -24.99954746 5.95745644 -23 6 C-23 6.33 -23 6.66 -23 7 C-24.65 7.33 -26.3 7.66 -28 8 C-28.33 8.99 -28.66 9.98 -29 11 C-26.03 10.34 -23.06 9.68 -20 9 C-20 9.66 -20 10.32 -20 11 C-21.65 11.33 -23.3 11.66 -25 12 C-25 12.99 -25 13.98 -25 15 C-23.5164999 14.57742724 -22.03823576 14.13643678 -20.5625 13.6875 C-19.73878906 13.44386719 -18.91507812 13.20023438 -18.06640625 12.94921875 C-17.38449219 12.63597656 -16.70257813 12.32273438 -16 12 C-15.67 11.01 -15.34 10.02 -15 9 C-14.34 9 -13.68 9 -13 9 C-14.29299694 11.88437779 -15.65941363 13.87219421 -18 16 C-13.52792762 14.59449154 -11.19950835 12.3635857 -8 9 C-4.37931034 6 -4.37931034 6 -2 6 C-1.34 4.02 -0.68 2.04 0 0 Z " fill="#232322" transform="translate(355,206)"/>
<path d="M0 0 C6.6 0 13.2 0 20 0 C20 0.66 20 1.32 20 2 C20.99580078 2.29003906 20.99580078 2.29003906 22.01171875 2.5859375 C30.78207381 5.17223199 30.78207381 5.17223199 35 7 C31.23375329 8.25541557 29.62811066 7.37061958 26 6 C26 6.66 26 7.32 26 8 C26.56847656 8.18175781 27.13695312 8.36351563 27.72265625 8.55078125 C31.89473154 9.90896937 35.89635405 11.38030678 39.90234375 13.1796875 C43.90849147 14.74633745 48.07471971 15.8510992 52.20703125 17.03515625 C55 18 55 18 57 20 C56.67 20.66 56.34 21.32 56 22 C49.67264688 21.41445765 44.16470587 19.44755751 38.25 17.1875 C37.30511719 16.84396484 36.36023438 16.50042969 35.38671875 16.14648438 C34.48050781 15.80294922 33.57429688 15.45941406 32.640625 15.10546875 C31.41134277 14.64370239 31.41134277 14.64370239 30.15722656 14.17260742 C27.65225884 12.81097773 26.64114089 11.29316017 25 9 C22.0749732 7.7217421 22.0749732 7.7217421 18.75 6.875 C17.58984375 6.545 16.4296875 6.215 15.234375 5.875 C13.63335937 5.441875 13.63335937 5.441875 12 5 C7.90503716 3.85455585 3.92271291 2.66418124 0 1 C0 0.67 0 0.34 0 0 Z " fill="#CCC6BC" transform="translate(304,108)"/>
<path d="M0 0 C3.63 0.66 7.26 1.32 11 2 C11 2.66 11 3.32 11 4 C12.32 4 13.64 4 15 4 C15 4.66 15 5.32 15 6 C16.36125 6.37125 16.36125 6.37125 17.75 6.75 C21.10351489 8.03981342 22.67708236 9.31971042 25 12 C20.99908596 12.74984705 17.23250483 13.1195296 13.1640625 13.09765625 C12.10058594 13.09443359 11.03710938 13.09121094 9.94140625 13.08789062 C8.84699219 13.07951172 7.75257813 13.07113281 6.625 13.0625 C5.50738281 13.05798828 4.38976562 13.05347656 3.23828125 13.04882812 C0.49213196 13.03709244 -2.25390586 13.02067363 -5 13 C-5.33 14.65 -5.66 16.3 -6 18 C-5.236875 17.67 -4.47375 17.34 -3.6875 17 C-1 16 -1 16 2 16 C2 16.66 2 17.32 2 18 C1.34 18 0.68 18 0 18 C0 18.66 0 19.32 0 20 C-1.8125 21.6875 -1.8125 21.6875 -4 23 C-7 22 -7 22 -8.3125 19.875 C-9.22033642 16.07859315 -8.28013032 13.62703591 -7 10 C-6.05125 10.020625 -5.1025 10.04125 -4.125 10.0625 C-1.09333717 10.22551826 -1.09333717 10.22551826 1 9 C1 8.34 1 7.68 1 7 C1.99 6.67 2.98 6.34 4 6 C4 5.01 4 4.02 4 3 C2.68 2.67 1.36 2.34 0 2 C0 1.34 0 0.68 0 0 Z " fill="#EBE2CF" transform="translate(343,130)"/>
<path d="M0 0 C-0.54714289 3.83000023 -2.10513208 5.50719706 -5 8 C-5.804375 8.474375 -6.60875 8.94875 -7.4375 9.4375 C-10.17258859 10.96035551 -10.17258859 10.96035551 -12.5625 13.625 C-15 16 -15 16 -19 17 C-17.02 14.36 -15.04 11.72 -13 9 C-13.7425 9.61875 -14.485 10.2375 -15.25 10.875 C-18.65845845 13.50880881 -20.66404139 15 -25 15 C-25 14.01 -25 13.02 -25 12 C-23.35 11.67 -21.7 11.34 -20 11 C-20 10.34 -20 9.68 -20 9 C-22.97 9.66 -25.94 10.32 -29 11 C-28 7 -28 7 -27 5 C-25.15169201 4.81960514 -23.29406554 4.73164862 -21.4375 4.6875 C-16.00030887 4.35894935 -13.14571437 3.17356774 -8.82421875 0.01171875 C-5.68729752 -1.72802985 -3.35646108 -0.90904154 0 0 Z " fill="#E5DBC8" transform="translate(355,206)"/>
<path d="M0 0 C0.99 0.66 1.98 1.32 3 2 C4.9896995 2.39013716 6.99019869 2.73202649 9 3 C6.08235 4.9451 4.37462715 5.45276317 1 6 C0.67 6.99 0.34 7.98 0 9 C0.66 9 1.32 9 2 9 C2 10.32 2 11.64 2 13 C-0.475 12.505 -0.475 12.505 -3 12 C-3 13.98 -3 15.96 -3 18 C-5.31 18 -7.62 18 -10 18 C-10.66 16.02 -11.32 14.04 -12 12 C-13.03125 12.495 -14.0625 12.99 -15.125 13.5 C-18.52451578 14.97473902 -21.27021549 15.27291106 -25 15 C-25.66 13.68 -26.32 12.36 -27 11 C-22.38 11 -17.76 11 -13 11 C-12.34 9.02 -11.68 7.04 -11 5 C-8.03 5.33 -5.06 5.66 -2 6 C-2 4.68 -2 3.36 -2 2 C-5.3 2.66 -8.6 3.32 -12 4 C-11 2 -11 2 -8.8125 0.875 C-5.67090998 -0.10238356 -3.27274934 -0.2845869 0 0 Z " fill="#D6CFC0" transform="translate(363,144)"/>
<path d="M0 0 C2.52274195 1.46319033 4.2914838 2.35913741 7.125 2.8125 C7.125 3.4725 7.125 4.1325 7.125 4.8125 C4.155 4.8125 1.185 4.8125 -1.875 4.8125 C-2.205 5.4725 -2.535 6.1325 -2.875 6.8125 C-3.205 5.8225 -3.535 4.8325 -3.875 3.8125 C-7.55986768 1.35592155 -9.52513547 1.73618659 -13.875 1.8125 C-15.21283393 1.49771554 -16.54703709 1.16662344 -17.875 0.8125 C-18.679375 0.85375 -19.48375 0.895 -20.3125 0.9375 C-23.567107 0.77873868 -25.16583142 -0.42654042 -27.875 -2.1875 C-29.52869357 -2.88572617 -31.19227014 -3.56248605 -32.875 -4.1875 C-32.875 -4.8475 -32.875 -5.5075 -32.875 -6.1875 C-30.235 -5.8575 -27.595 -5.5275 -24.875 -5.1875 C-24.875 -5.8475 -24.875 -6.5075 -24.875 -7.1875 C-17.58550334 -10.10329866 -6.25959738 -3.69396841 0 0 Z " fill="#A6A29A" transform="translate(399.875,131.1875)"/>
<path d="M0 0 C1.90318884 2.85478326 2.4619099 4.41941308 3.125 7.6875 C3.29257812 8.49574219 3.46015625 9.30398437 3.6328125 10.13671875 C3.75398438 10.75160156 3.87515625 11.36648437 4 12 C4.66 12 5.32 12 6 12 C6.38063221 14.3260857 6.71269945 16.66055264 7 19 C6 20 6 20 3.4375 20.0625 C2.633125 20.041875 1.82875 20.02125 1 20 C0.731875 19.030625 0.46375 18.06125 0.1875 17.0625 C-0.204375 16.051875 -0.59625 15.04125 -1 14 C-1.99 13.67 -2.98 13.34 -4 13 C-3.67 14.98 -3.34 16.96 -3 19 C-3.99 19 -4.98 19 -6 19 C-7 15 -7 15 -8 11 C-7.01 11 -6.02 11 -5 11 C-5.33 10.01 -5.66 9.02 -6 8 C-7.98 9.32 -9.96 10.64 -12 12 C-11.67 13.32 -11.34 14.64 -11 16 C-11.99 16 -12.98 16 -14 16 C-14 15.01 -14 14.02 -14 13 C-14.99 12.67 -15.98 12.34 -17 12 C-15.824375 11.38125 -15.824375 11.38125 -14.625 10.75 C-11.90340336 9.26922727 -11.90340336 9.26922727 -11.0625 6.9375 C-10 5 -10 5 -7.0625 3.625 C-5.5465625 3.315625 -5.5465625 3.315625 -4 3 C-3.01 3.66 -2.02 4.32 -1 5 C-0.67 3.35 -0.34 1.7 0 0 Z " fill="#373737" transform="translate(367,177)"/>
<path d="M0 0 C4.35970831 1.34849837 8.31341438 3.04907846 12.375 5.125 C13.43460937 5.66382812 14.49421875 6.20265625 15.5859375 6.7578125 C16.38257813 7.16773437 17.17921875 7.57765625 18 8 C18 7.34 18 6.68 18 6 C19.32 5.34 20.64 4.68 22 4 C22 4.99 22 5.98 22 7 C21.01 7 20.02 7 19 7 C19 7.66 19 8.32 19 9 C19.9590625 9.1546875 19.9590625 9.1546875 20.9375 9.3125 C21.618125 9.539375 22.29875 9.76625 23 10 C23.33 10.99 23.66 11.98 24 13 C24.66 13 25.32 13 26 13 C26 13.66 26 14.32 26 15 C27.32 15.66 28.64 16.32 30 17 C30 17.33 30 17.66 30 18 C28.35 18 26.7 18 25 18 C25 17.34 25 16.68 25 16 C24.38253906 15.81824219 23.76507813 15.63648437 23.12890625 15.44921875 C13.14509456 12.48598697 3.58220225 9.10202567 -6 5 C-6 4.34 -6 3.68 -6 3 C-3.36 3.33 -0.72 3.66 2 4 C0.68 3.34 -0.64 2.68 -2 2 C-1.34 2 -0.68 2 0 2 C0 1.34 0 0.68 0 0 Z " fill="#E5DCCA" transform="translate(336,111)"/>
<path d="M0 0 C2.64 0.33 5.28 0.66 8 1 C8.08636719 1.77085937 8.17273438 2.54171875 8.26171875 3.3359375 C8.40222656 4.33882812 8.54273438 5.34171875 8.6875 6.375 C8.81511719 7.37273437 8.94273437 8.37046875 9.07421875 9.3984375 C9.75510016 12.24418405 9.75510016 12.24418405 12.58203125 13.3515625 C13.77892578 13.67253906 13.77892578 13.67253906 15 14 C14.34 15.32 13.68 16.64 13 18 C11.68 18 10.36 18 9 18 C9 16.68 9 15.36 9 14 C8.484375 14.515625 7.96875 15.03125 7.4375 15.5625 C3.98386566 17.59925871 1.80968111 16.91714545 -2 16 C-2.66 15.34 -3.32 14.68 -4 14 C-3.56344692 9.19791609 -1.57131574 4.53606243 0 0 Z " fill="#F1E7D3" transform="translate(384,179)"/>
<path d="M0 0 C0.33 1.32 0.66 2.64 1 4 C3.31 4.66 5.62 5.32 8 6 C8.79953138 9.28696233 9.09658936 10.71023192 8 14 C10.97 14 13.94 14 17 14 C18.20272819 16.40545638 18.10071472 17.94996953 18.0625 20.625 C18.05347656 21.44226563 18.04445313 22.25953125 18.03515625 23.1015625 C18.02355469 23.72804687 18.01195312 24.35453125 18 25 C16.02 24.67 14.04 24.34 12 24 C11.67 25.65 11.34 27.3 11 29 C10.67 29 10.34 29 10 29 C9.5978125 27.329375 9.5978125 27.329375 9.1875 25.625 C8.15696952 21.45839476 6.8999426 17.38199976 5.5859375 13.296875 C5 11 5 11 5 7 C3.824375 6.7834375 3.824375 6.7834375 2.625 6.5625 C0 6 0 6 -2 5 C-1.125 1.125 -1.125 1.125 0 0 Z " fill="#131313" transform="translate(298,161)"/>
<path d="M0 0 C2.31 0.33 4.62 0.66 7 1 C6.125 8.625 6.125 8.625 5 12 C5.66 12 6.32 12 7 12 C6.63287028 14.71675995 6.27255401 16.61063713 4.6875 18.875 C3 20 3 20 0.875 19.8125 C-1 19 -1 19 -2 17 C-3.12804706 10.60773331 -3.79766481 5.62054392 0 0 Z " fill="#F2E8D4" transform="translate(372,170)"/>
<path d="M0 0 C2.64 0 5.28 0 8 0 C7.25 2.9375 7.25 2.9375 6 6 C3.875 6.875 3.875 6.875 2 7 C2 7.66 2 8.32 2 9 C2.83144531 8.98839844 3.66289062 8.97679687 4.51953125 8.96484375 C5.60621094 8.95582031 6.69289063 8.94679687 7.8125 8.9375 C8.89144531 8.92589844 9.97039062 8.91429687 11.08203125 8.90234375 C14 9 14 9 17 10 C16.67 10.66 16.34 11.32 16 12 C15.41734375 11.93941406 14.8346875 11.87882813 14.234375 11.81640625 C7.49590043 11.12772567 0.75149484 10.54522381 -6 10 C-6.33 10.66 -6.66 11.32 -7 12 C-7 11.01 -7 10.02 -7 9 C-4.69 9 -2.38 9 0 9 C0 8.34 0 7.68 0 7 C-1.3303125 7.061875 -1.3303125 7.061875 -2.6875 7.125 C-5.97277013 7.00102754 -8.05449295 6.38612096 -11 5 C-11 4.01 -11 3.02 -11 2 C-8.01405576 0.50702788 -5.29146376 0.88244772 -2 1 C-1.34 1.33 -0.68 1.66 0 2 C0 1.34 0 0.68 0 0 Z " fill="#8E8C89" transform="translate(381,200)"/>
<path d="M0 0 C1.32 0.33 2.64 0.66 4 1 C4.12375 1.94875 4.2475 2.8975 4.375 3.875 C4.71687177 7.08667191 4.71687177 7.08667191 7 9 C5.33333333 14 3.66666667 19 2 24 C1.01 24 0.02 24 -1 24 C0.11854586 27.72614153 0.11854586 27.72614153 3 30 C3 30.66 3 31.32 3 32 C0.69 31.67 -1.62 31.34 -4 31 C-3.79375 30.29875 -3.5875 29.5975 -3.375 28.875 C-2.92149643 25.39813928 -3.72459723 23.22601877 -5 20 C-4.195625 19.4225 -3.39125 18.845 -2.5625 18.25 C-0.02133261 16.01873107 0.65120368 15.25543229 1 12 C0.34 12 -0.32 12 -1 12 C-0.67 8.04 -0.34 4.08 0 0 Z " fill="#1D1D1D" transform="translate(378,170)"/>
<path d="M0 0 C3.63 0.33 7.26 0.66 11 1 C11 1.66 11 2.32 11 3 C11.66 2.67 12.32 2.34 13 2 C18.76594722 1.63196082 21.63007606 3.38351122 26 7 C26 7.66 26 8.32 26 9 C25.071875 8.814375 24.14375 8.62875 23.1875 8.4375 C19.98656229 7.75876119 19.98656229 7.75876119 17 9 C17 9.66 17 10.32 17 11 C13.07148704 9.86279888 9.38770966 8.35034884 5.6875 6.625 C4.82511719 6.22539063 3.96273438 5.82578125 3.07421875 5.4140625 C1 4 1 4 0 0 Z " fill="#F4E9D4" transform="translate(337,108)"/>
<path d="M0 0 C0.75732422 0.00644531 1.51464844 0.01289062 2.29492188 0.01953125 C3.08060547 0.03628906 3.86628906 0.05304688 4.67578125 0.0703125 C5.47306641 0.07933594 6.27035156 0.08835937 7.09179688 0.09765625 C9.05742025 0.12119665 11.022889 0.15706703 12.98828125 0.1953125 C12.98828125 0.5253125 12.98828125 0.8553125 12.98828125 1.1953125 C8.36828125 1.5253125 3.74828125 1.8553125 -1.01171875 2.1953125 C0.51453125 2.4634375 2.04078125 2.7315625 3.61328125 3.0078125 C7.85764181 3.85311292 11.15554424 5.1566226 14.98828125 7.1953125 C17.96293312 8.27700409 20.96811007 9.2489922 23.98828125 10.1953125 C23.98828125 10.8553125 23.98828125 11.5153125 23.98828125 12.1953125 C22.99828125 12.1953125 22.00828125 12.1953125 20.98828125 12.1953125 C20.65828125 12.8553125 20.32828125 13.5153125 19.98828125 14.1953125 C19.98828125 13.5353125 19.98828125 12.8753125 19.98828125 12.1953125 C19.28445313 12.02515625 18.580625 11.855 17.85546875 11.6796875 C14.56116588 10.87116408 11.27419308 10.03730511 7.98828125 9.1953125 C7.03477783 8.95458008 7.03477783 8.95458008 6.06201172 8.70898438 C4.1380242 8.21824487 2.21932418 7.70692395 0.30078125 7.1953125 C-0.87871094 6.8859375 -2.05820312 6.5765625 -3.2734375 6.2578125 C-4.17707031 5.9071875 -5.08070313 5.5565625 -6.01171875 5.1953125 C-6.34171875 4.2053125 -6.67171875 3.2153125 -7.01171875 2.1953125 C-3.96490814 0.16410543 -3.41053551 -0.05128625 0 0 Z " fill="#ADA9A2" transform="translate(306.01171875,106.8046875)"/>
<path d="M0 0 C1.32 0.66 2.64 1.32 4 2 C3.47731534 4.76276177 2.89130413 7.3260876 2 10 C2 11.32 2 12.64 2 14 C0.68 14.33 -0.64 14.66 -2 15 C-2 15.66 -2 16.32 -2 17 C-3.32 16.67 -4.64 16.34 -6 16 C-6.02696365 14.20841511 -6.04637917 12.41671527 -6.0625 10.625 C-6.07410156 9.62726563 -6.08570313 8.62953125 -6.09765625 7.6015625 C-6 5 -6 5 -5 3 C-3.35 3 -1.7 3 0 3 C0 2.01 0 1.02 0 0 Z " fill="#EEE4D0" transform="translate(399,169)"/>
<path d="M0 0 C0.33 0.66 0.66 1.32 1 2 C3.02463255 2.65213292 3.02463255 2.65213292 5 3 C5 3.66 5 4.32 5 5 C7.31 5.33 9.62 5.66 12 6 C12 6.66 12 7.32 12 8 C10.35 8 8.7 8 7 8 C7 8.66 7 9.32 7 10 C8.32 10.33 9.64 10.66 11 11 C10.01 11.495 10.01 11.495 9 12 C8.566875 12.99 8.566875 12.99 8.125 14 C7 16 7 16 4.875 16.75 C3.946875 16.87375 3.946875 16.87375 3 17 C2.875 9.375 2.875 9.375 4 6 C-0.95 8.97 -0.95 8.97 -6 12 C-5.34 10.35 -4.68 8.7 -4 7 C-3.67 5.9275 -3.34 4.855 -3 3.75 C-2 1 -2 1 0 0 Z " fill="#343432" transform="translate(310,142)"/>
<path d="M0 0 C-0.54714289 3.83000023 -2.10513208 5.50719706 -5 8 C-5.804375 8.474375 -6.60875 8.94875 -7.4375 9.4375 C-10.17258859 10.96035551 -10.17258859 10.96035551 -12.5625 13.625 C-15.00194421 16.00189436 -15.82591016 16.39605056 -19 17 C-18.07456291 15.65826597 -17.13422595 14.32679841 -16.1875 13 C-15.66542969 12.2575 -15.14335937 11.515 -14.60546875 10.75 C-14.07566406 10.1725 -13.54585938 9.595 -13 9 C-12.01 9 -11.02 9 -10 9 C-10 8.01 -10 7.02 -10 6 C-10.66 6 -11.32 6 -12 6 C-9.63080135 -0.92534991 -6.93648635 -1.30877101 0 0 Z " fill="#F0E5CF" transform="translate(355,206)"/>
<path d="M0 0 C1.33333333 0.66666667 2.66666667 1.33333333 4 2 C7.6368085 2.36368085 9.86269264 1.8591451 13 0 C13 1.32 13 2.64 13 4 C15.475 4.495 15.475 4.495 18 5 C18 6.32 18 7.64 18 9 C16.35 9.33 14.7 9.66 13 10 C13.66 9.67 14.32 9.34 15 9 C15 8.34 15 7.68 15 7 C12.525 6.505 12.525 6.505 10 6 C10.33 7.65 10.66 9.3 11 11 C10.01 11 9.02 11 8 11 C8.33 9.68 8.66 8.36 9 7 C8.30132812 7.02320313 7.60265625 7.04640625 6.8828125 7.0703125 C5.97273438 7.08835938 5.06265625 7.10640625 4.125 7.125 C3.22007812 7.14820313 2.31515625 7.17140625 1.3828125 7.1953125 C-1 7 -1 7 -3 5 C-3 3.68 -3 2.36 -3 1 C-2.01 0.67 -1.02 0.34 0 0 Z " fill="#EDE4D2" transform="translate(380,193)"/>
<path d="M0 0 C2.64 0.33 5.28 0.66 8 1 C7.01 1.495 7.01 1.495 6 2 C6 5.3 6 8.6 6 12 C6.99 12.33 7.98 12.66 9 13 C4.38 13 -0.24 13 -5 13 C-5.33 14.65 -5.66 16.3 -6 18 C-5.236875 17.67 -4.47375 17.34 -3.6875 17 C-1 16 -1 16 2 16 C2 16.66 2 17.32 2 18 C1.34 18 0.68 18 0 18 C0 18.66 0 19.32 0 20 C-1.8125 21.6875 -1.8125 21.6875 -4 23 C-7 22 -7 22 -8.3125 19.875 C-9.22033642 16.07859315 -8.28013032 13.62703591 -7 10 C-6.05125 10.020625 -5.1025 10.04125 -4.125 10.0625 C-1.09333717 10.22551826 -1.09333717 10.22551826 1 9 C1 8.34 1 7.68 1 7 C1.99 6.67 2.98 6.34 4 6 C4 5.01 4 4.02 4 3 C2.68 2.67 1.36 2.34 0 2 C0 1.34 0 0.68 0 0 Z " fill="#797877" transform="translate(343,130)"/>
<path d="M0 0 C0.99 0.66 1.98 1.32 3 2 C4.9896995 2.39013716 6.99019869 2.73202649 9 3 C6.08235 4.9451 4.37462715 5.45276317 1 6 C0.67 6.99 0.34 7.98 0 9 C0.66 9 1.32 9 2 9 C2 10.32 2 11.64 2 13 C0.35 12.67 -1.3 12.34 -3 12 C-3.33 12.99 -3.66 13.98 -4 15 C-5.32 15 -6.64 15 -8 15 C-8 14.01 -8 13.02 -8 12 C-7.34 11.67 -6.68 11.34 -6 11 C-5.34444881 8.47266765 -5.34444881 8.47266765 -5 6 C-4.01 6 -3.02 6 -2 6 C-2 4.68 -2 3.36 -2 2 C-5.3 2.66 -8.6 3.32 -12 4 C-11 2 -11 2 -8.8125 0.875 C-5.67090998 -0.10238356 -3.27274934 -0.2845869 0 0 Z " fill="#858481" transform="translate(363,144)"/>
<path d="M0 0 C2.97 0.495 2.97 0.495 6 1 C6 2.32 6 3.64 6 5 C2.7 5.33 -0.6 5.66 -4 6 C-5.58321067 11.47774766 -5.58321067 11.47774766 -7 17 C-7.66 15.68 -8.32 14.36 -9 13 C-9.99 13 -10.98 13 -12 13 C-12 12.34 -12 11.68 -12 11 C-12.66 11 -13.32 11 -14 11 C-14 8.03 -14 5.06 -14 2 C-13.67 2 -13.34 2 -13 2 C-13 4.31 -13 6.62 -13 9 C-11.68 9 -10.36 9 -9 9 C-8.731875 8.38125 -8.46375 7.7625 -8.1875 7.125 C-7 5 -7 5 -4 3 C-2.68 3 -1.36 3 0 3 C0 2.01 0 1.02 0 0 Z " fill="#B3B0AC" transform="translate(376,165)"/>
<path d="M0 0 C0.33 0 0.66 0 1 0 C1 1.98 1 3.96 1 6 C2.32 6.33 3.64 6.66 5 7 C4.67 12.94 4.34 18.88 4 25 C2.02 25.99 2.02 25.99 0 27 C0.01160156 25.85660156 0.02320313 24.71320313 0.03515625 23.53515625 C0.04453288 22.04427246 0.05363321 20.55338691 0.0625 19.0625 C0.07087891 18.30775391 0.07925781 17.55300781 0.08789062 16.77539062 C0.09652441 14.85005687 0.05224333 12.92464419 0 11 C-0.33 10.67 -0.66 10.34 -1 10 C-1.0979057 8.50261876 -1.12974864 7.00057108 -1.125 5.5 C-1.12757813 4.6853125 -1.13015625 3.870625 -1.1328125 3.03125 C-1 1 -1 1 0 0 Z " fill="#302F2E" transform="translate(315,207)"/>
<path d="M0 0 C0.66 0 1.32 0 2 0 C2.28875 0.7425 2.5775 1.485 2.875 2.25 C3.8955285 4.94853084 3.8955285 4.94853084 5.25 7.0625 C6 9 6 9 5.125 11.25 C4.75375 11.8275 4.3825 12.405 4 13 C4 12.34 4 11.68 4 11 C1.03 11 -1.94 11 -5 11 C-4.74438677 8.6568787 -4.40729228 6.32156597 -4 4 C-3.34 3.67 -2.68 3.34 -2 3 C-1.34 2.01 -0.68 1.02 0 0 Z " fill="#E1D8C7" transform="translate(311,164)"/>
<path d="M0 0 C4.38513333 0.64448172 8.51186949 1.64360071 12.75 2.9375 C13.87921875 3.27652344 15.0084375 3.61554688 16.171875 3.96484375 C19 5 19 5 21 7 C20.67 7.66 20.34 8.32 20 9 C12.84831485 8.50104522 6.58708719 5.68436185 0 3 C0 2.01 0 1.02 0 0 Z " fill="#646463" transform="translate(340,121)"/>
<path d="M0 0 C0.66 0.33 1.32 0.66 2 1 C4.3329866 1.04022391 6.66706666 1.04320247 9 1 C9 1.33 9 1.66 9 2 C7.906875 2.309375 6.81375 2.61875 5.6875 2.9375 C3.44592006 3.58337897 1.2130649 4.2623117 -1 5 C-1.33 5.99 -1.66 6.98 -2 8 C-3.40456672 8.93637781 -4.81387648 9.86668571 -6.25 10.75390625 C-8.94110066 12.67011408 -11.06924977 15.07826207 -13.2890625 17.51171875 C-15.20570637 19.17893636 -16.56539434 19.45041602 -19 20 C-19.33 20.66 -19.66 21.32 -20 22 C-20 19.69 -20 17.38 -20 15 C-19.443125 15.268125 -18.88625 15.53625 -18.3125 15.8125 C-17.549375 15.874375 -16.78625 15.93625 -16 16 C-13.56197123 13.81356892 -13.56197123 13.81356892 -11 11 C-4.77358491 6 -4.77358491 6 -2 6 C-1.34 4.02 -0.68 2.04 0 0 Z " fill="#5E5D59" transform="translate(355,206)"/>
<path d="M0 0 C0 1.65 0 3.3 0 5 C0.66 5 1.32 5 2 5 C2 5.99 2 6.98 2 8 C0.68 7.67 -0.64 7.34 -2 7 C-2 6.34 -2 5.68 -2 5 C-2.66 5 -3.32 5 -4 5 C-4 5.99 -4 6.98 -4 8 C-3.34 8 -2.68 8 -2 8 C-2 9.32 -2 10.64 -2 12 C-0.02 12 1.96 12 4 12 C1 14 1 14 -1 15 C-1.65555119 17.52733235 -1.65555119 17.52733235 -2 20 C-2.33 20 -2.66 20 -3 20 C-3 18.02 -3 16.04 -3 14 C-3.66 13.67 -4.32 13.34 -5 13 C-4.34 13 -3.68 13 -3 13 C-3 11.68 -3 10.36 -3 9 C-4.65 9 -6.3 9 -8 9 C-8.33 8.34 -8.66 7.68 -9 7 C-7.68 7 -6.36 7 -5 7 C-5 6.34 -5 5.68 -5 5 C-5.99 4.67 -6.98 4.34 -8 4 C-5 3 -5 3 -2 3 C-2.66 2.34 -3.32 1.68 -4 1 C-2 0 -2 0 0 0 Z " fill="#4D4D4C" transform="translate(385,157)"/>
<path d="M0 0 C0.33 0 0.66 0 1 0 C4.34778681 14.92604095 2.80809335 31.59718464 -2 46 C-2.33 46 -2.66 46 -3 46 C-3.17151487 40.94031127 -3.03461345 37.66764263 -1 33 C0.3533949 26.23302552 0.1112631 19.43809677 0.0625 12.5625 C0.05798828 11.35400391 0.05347656 10.14550781 0.04882812 8.90039062 C0.03710145 5.93354211 0.02068896 2.9667973 0 0 Z " fill="#8A867D" transform="translate(423,152)"/>
<path d="M0 0 C0.66 0.33 1.32 0.66 2 1 C2 1.99 2 2.98 2 4 C2.66 4 3.32 4 4 4 C3.67 3.01 3.34 2.02 3 1 C5.64 1 8.28 1 11 1 C10.67 2.32 10.34 3.64 10 5 C9.01 5 8.02 5 7 5 C7.33 5.99 7.66 6.98 8 8 C6.02 8.33 4.04 8.66 2 9 C0.4375 7.3125 0.4375 7.3125 -1 5 C-0.6875 2.25 -0.6875 2.25 0 0 Z " fill="#0B0B0B" transform="translate(337,132)"/>
<path d="M0 0 C1.98 0.495 1.98 0.495 4 1 C4.12375 1.94875 4.2475 2.8975 4.375 3.875 C4.71687177 7.08667191 4.71687177 7.08667191 7 9 C6.625 11.625 6.625 11.625 6 14 C5.01 14.33 4.02 14.66 3 15 C3 14.01 3 13.02 3 12 C1.68 12 0.36 12 -1 12 C-0.67 8.04 -0.34 4.08 0 0 Z " fill="#171717" transform="translate(378,170)"/>
<path d="M0 0 C0.99 0 1.98 0 3 0 C2.67 1.32 2.34 2.64 2 4 C3.423125 4.2165625 3.423125 4.2165625 4.875 4.4375 C8 5 8 5 10 6 C10.042721 7.66611905 10.04063832 9.33382885 10 11 C9 12 9 12 6.4375 12.0625 C5.633125 12.041875 4.82875 12.02125 4 12 C3.32645501 10.56570999 2.66140299 9.12742943 2 7.6875 C1.62875 6.88699219 1.2575 6.08648437 0.875 5.26171875 C0 3 0 3 0 0 Z " fill="#7B7B7A" transform="translate(364,185)"/>
<path d="M0 0 C0 0.66 0 1.32 0 2 C-0.66 2 -1.32 2 -2 2 C-2.12375 2.53625 -2.2475 3.0725 -2.375 3.625 C-3.12206016 6.4638286 -4.05303364 9.22223202 -5 12 C-7.97 11.505 -7.97 11.505 -11 11 C-11 9.02 -11 7.04 -11 5 C-10.2575 4.731875 -9.515 4.46375 -8.75 4.1875 C-5.69369987 2.86773403 -3.29552413 0 0 0 Z " fill="#181818" transform="translate(350,164)"/>
<path d="M0 0 C0.66 0 1.32 0 2 0 C2 0.66 2 1.32 2 2 C2.9075 2.2475 3.815 2.495 4.75 2.75 C8.10351489 4.03981342 9.67708236 5.31971042 12 8 C6.97703996 9.13016601 3.02125926 8.77916092 -2 8 C-1.34 7.01 -0.68 6.02 0 5 C-0.66 4.34 -1.32 3.68 -2 3 C-1.01 3 -0.02 3 1 3 C0.67 2.01 0.34 1.02 0 0 Z " fill="#C0BBB2" transform="translate(356,134)"/>
<path d="M0 0 C0 0.66 0 1.32 0 2 C0.66 2 1.32 2 2 2 C1.63287028 4.71675995 1.27255401 6.61063713 -0.3125 8.875 C-2 10 -2 10 -4.1875 9.6875 C-4.785625 9.460625 -5.38375 9.23375 -6 9 C-6.625 6.625 -6.625 6.625 -7 4 C-3 0 -3 0 0 0 Z " fill="#E5DCC9" transform="translate(377,180)"/>
<path d="M0 0 C0.99 0 1.98 0 3 0 C3.75 2.125 3.75 2.125 4 5 C1.10843373 10.56894244 1.10843373 10.56894244 -2.25 11.875 C-2.8275 11.91625 -3.405 11.9575 -4 12 C-2.7027027 2.7027027 -2.7027027 2.7027027 0 0 Z " fill="#E0D9CA" transform="translate(354,177)"/>
<path d="M0 0 C1.89453125 0.234375 1.89453125 0.234375 4 1 C5.01171875 2.890625 5.01171875 2.890625 5.6875 5.25 C5.9246875 6.05824219 6.161875 6.86648437 6.40625 7.69921875 C7.03120875 10.1209339 7.60160467 12.52994892 8 15 C6.140625 14.80078125 6.140625 14.80078125 4 14 C2.734375 11.85546875 2.734375 11.85546875 1.75 9.1875 C1.41484375 8.31480469 1.0796875 7.44210938 0.734375 6.54296875 C0 4 0 4 0 0 Z " fill="#C4BFB4" transform="translate(380,135)"/>
<path d="M0 0 C0.33 0 0.66 0 1 0 C1 2.97 1 5.94 1 9 C-1.97 8.505 -1.97 8.505 -5 8 C-5.33 9.65 -5.66 11.3 -6 13 C-6.33 13 -6.66 13 -7 13 C-8 9 -9 5 -10 1 C-2.42857143 2.85714286 -2.42857143 2.85714286 0 6 C0 4.02 0 2.04 0 0 Z " fill="#5D5C5B" transform="translate(315,177)"/>
<path d="M0 0 C4.95 0 9.9 0 15 0 C15.33 1.65 15.66 3.3 16 5 C18.97 5.495 18.97 5.495 22 6 C22 6.33 22 6.66 22 7 C15.48579376 6.24836082 15.48579376 6.24836082 13.08984375 5.0234375 C9.91697039 3.46961914 6.60784021 3.13042182 3.14453125 2.5625 C2.43683594 2.376875 1.72914063 2.19125 1 2 C0.67 1.34 0.34 0.68 0 0 Z " fill="#444444" transform="translate(304,108)"/>
<path d="M0 0 C0.87269531 -0.01417969 1.74539063 -0.02835938 2.64453125 -0.04296875 C5.29669085 0.19739594 6.91214999 0.84562691 9.1875 2.1875 C7.5375 2.1875 5.8875 2.1875 4.1875 2.1875 C4.1875 3.1775 4.1875 4.1675 4.1875 5.1875 C0.8875 5.5175 -2.4125 5.8475 -5.8125 6.1875 C-5.8125 -0.22102413 -5.74204652 0.04203548 0 0 Z " fill="#DCD4C4" transform="translate(342.8125,141.8125)"/>
<path d="M0 0 C5.10477099 -0.520895 8.79747008 -0.60263447 13.0625 2.5 C14.031875 3.325 15.00125 4.15 16 5 C15.67 5.66 15.34 6.32 15 7 C10.65873643 7.37210831 8.60340032 6.34221021 5 4 C3.34630643 3.30177383 1.68272986 2.62501395 0 2 C0 1.34 0 0.68 0 0 Z " fill="#999690" transform="translate(367,125)"/>
<path d="M0 0 C0.66 0 1.32 0 2 0 C2.144375 1.134375 2.28875 2.26875 2.4375 3.4375 C2.61171478 6.80777201 2.61171478 6.80777201 4 8 C4.04080783 9.99958364 4.04254356 12.00045254 4 14 C3.01 14 2.02 14 1 14 C0.67 11.69 0.34 9.38 0 7 C-0.66 7 -1.32 7 -2 7 C-2.125 4.625 -2.125 4.625 -2 2 C-1.34 1.34 -0.68 0.68 0 0 Z " fill="#DDD4C1" transform="translate(312,210)"/>
<path d="M0 0 C5.19209404 -0.21192221 9.126739 0.4087311 14 2 C14 2.66 14 3.32 14 4 C10.7 4.33 7.4 4.66 4 5 C4 4.34 4 3.68 4 3 C2.35 3 0.7 3 -1 3 C-0.67 2.01 -0.34 1.02 0 0 Z " fill="#E9E1CF" transform="translate(372,201)"/>
<path d="M0 0 C3.61055091 0.76242216 6.85834625 2.12473374 10.25 3.5625 C11.32765625 4.01753906 12.4053125 4.47257812 13.515625 4.94140625 C14.33546875 5.29074219 15.1553125 5.64007813 16 6 C15.67 6.99 15.34 7.98 15 9 C10.62563349 8.49135273 7.59903281 7.57073772 4 5 C3.67 4.34 3.34 3.68 3 3 C2.01 2.67 1.02 2.34 0 2 C0 1.34 0 0.68 0 0 Z " fill="#B6B1A7" transform="translate(326,114)"/>
<path d="M0 0 C0 3.19490342 -0.59110506 4.59617544 -1.9375 7.4375 C-3.27937943 10.27997579 -4.33431537 12.92383629 -5 16 C-5.66 16 -6.32 16 -7 16 C-7.66 14.35 -8.32 12.7 -9 11 C-8.34 10.34 -7.68 9.68 -7 9 C-6.896875 8.195625 -6.79375 7.39125 -6.6875 6.5625 C-6 4 -6 4 -3.5 2.25 C-2.675 1.8375 -1.85 1.425 -1 1 C-0.67 0.67 -0.34 0.34 0 0 Z " fill="#3B3A3A" transform="translate(355,173)"/>
<path d="M0 0 C0.96421875 0.49371094 1.9284375 0.98742187 2.921875 1.49609375 C4.19780852 2.14344237 5.47385621 2.79056599 6.75 3.4375 C7.38421875 3.76298828 8.0184375 4.08847656 8.671875 4.42382812 C11.73359908 5.97063665 14.60615621 7.3915078 18 8 C18 8.66 18 9.32 18 10 C15.03 10 12.06 10 9 10 C8.67 10.66 8.34 11.32 8 12 C7.67 10.68 7.34 9.36 7 8 C7.66 7.67 8.32 7.34 9 7 C5.7 5.35 2.4 3.7 -1 2 C-0.67 1.34 -0.34 0.68 0 0 Z " fill="#84827F" transform="translate(389,126)"/>
<path d="M0 0 C0.66 0.33 1.32 0.66 2 1 C1.34 2.32 0.68 3.64 0 5 C-0.66 5 -1.32 5 -2 5 C-2.33 5.66 -2.66 6.32 -3 7 C-3 6.34 -3 5.68 -3 5 C-8.22325977 9.46351289 -13.20922972 14.0744893 -18 19 C-18 16 -18 16 -15.5859375 13.22265625 C-14.52338926 12.16143953 -13.45268656 11.10834003 -12.375 10.0625 C-11.59189453 9.27456055 -11.59189453 9.27456055 -10.79296875 8.47070312 C-7.42965164 5.15306069 -4.00928846 2.49828035 0 0 Z " fill="#E3D9C4" transform="translate(301,104)"/>
<path d="M0 0 C2 3 2 3 1.625 5.1875 C1.41875 5.785625 1.2125 6.38375 1 7 C-1.31 7 -3.62 7 -6 7 C-6.1875 4.625 -6.1875 4.625 -6 2 C-3 0 -3 0 0 0 Z " fill="#EDE4D0" transform="translate(389,170)"/>
<path d="M0 0 C0 0.99 0 1.98 0 3 C-1.57967807 3.67528223 -3.16391903 4.33989694 -4.75 5 C-6.07257813 5.556875 -6.07257813 5.556875 -7.421875 6.125 C-10 7 -10 7 -14 7 C-14 6.34 -14 5.68 -14 5 C-12.730447 4.35165346 -11.45930294 3.70642185 -10.1875 3.0625 C-9.47980469 2.70285156 -8.77210938 2.34320313 -8.04296875 1.97265625 C-5.21118833 0.62444722 -3.15756231 0 0 0 Z " fill="#989591" transform="translate(344,196)"/>
<path d="M0 0 C0.99 0 1.98 0 3 0 C3.33 3.96 3.66 7.92 4 12 C2.35 12 0.7 12 -1 12 C-1 10.68 -1 9.36 -1 8 C-0.34 8 0.32 8 1 8 C1 7.34 1 6.68 1 6 C0.01 6.33 -0.98 6.66 -2 7 C-1.34 4.69 -0.68 2.38 0 0 Z " fill="#787777" transform="translate(359,166)"/>
<path d="M0 0 C0.33 1.32 0.66 2.64 1 4 C3.31 4.66 5.62 5.32 8 6 C9.125 10.75 9.125 10.75 8 13 C7.34 13 6.68 13 6 13 C5.67 11.02 5.34 9.04 5 7 C3.824375 6.7834375 3.824375 6.7834375 2.625 6.5625 C0 6 0 6 -2 5 C-1.125 1.125 -1.125 1.125 0 0 Z " fill="#5F5C56" transform="translate(298,161)"/>
<path d="M0 0 C0.33 0 0.66 0 1 0 C1 2.64 1 5.28 1 8 C1.99 8.33 2.98 8.66 4 9 C2.35 9.66 0.7 10.32 -1 11 C-1 13.31 -1 15.62 -1 18 C-1.33 18 -1.66 18 -2 18 C-2.33 16.35 -2.66 14.7 -3 13 C-4.32 14.32 -5.64 15.64 -7 17 C-7.33 16.34 -7.66 15.68 -8 15 C-5.66666667 12.66666667 -3.33333333 10.33333333 -1 8 C-0.54188325 6.02764667 -0.54188325 6.02764667 -0.375 3.875 C-0.189375 1.956875 -0.189375 1.956875 0 0 Z " fill="#252524" transform="translate(318,195)"/>
<path d="M0 0 C1.98 1.32 3.96 2.64 6 4 C3.92446352 4.5534764 2.15634036 5 0 5 C0.66 5.33 1.32 5.66 2 6 C2 6.66 2 7.32 2 8 C-1.69541586 8.95024979 -4.30458414 8.95024979 -8 8 C-8 7.34 -8 6.68 -8 6 C-6.35 6 -4.7 6 -3 6 C-3 5.01 -3 4.02 -3 3 C-2.01 2.67 -1.02 2.34 0 2 C0 1.34 0 0.68 0 0 Z " fill="#C5C0B6" transform="translate(378,156)"/>
<path d="M0 0 C2.16874252 0.50603992 3.99967627 0.99983813 6 2 C6 3.32 6 4.64 6 6 C4.35 5.67 2.7 5.34 1 5 C0.67 5.99 0.34 6.98 0 8 C-1.32 8 -2.64 8 -4 8 C-4 7.01 -4 6.02 -4 5 C-2.68 4.67 -1.36 4.34 0 4 C0 2.68 0 1.36 0 0 Z " fill="#3F3F3E" transform="translate(359,151)"/>
<path d="M0 0 C1.4540625 0.0309375 1.4540625 0.0309375 2.9375 0.0625 C2.9375 0.3925 2.9375 0.7225 2.9375 1.0625 C1.2875 1.3925 -0.3625 1.7225 -2.0625 2.0625 C-2.3925 3.0525 -2.7225 4.0425 -3.0625 5.0625 C-0.0925 4.4025 2.8775 3.7425 5.9375 3.0625 C5.9375 3.7225 5.9375 4.3825 5.9375 5.0625 C4.2875 5.3925 2.6375 5.7225 0.9375 6.0625 C0.9375 7.0525 0.9375 8.0425 0.9375 9.0625 C1.9275 9.3925 2.9175 9.7225 3.9375 10.0625 C2.2875 9.7325 0.6375 9.4025 -1.0625 9.0625 C-1.0625 8.4025 -1.0625 7.7425 -1.0625 7.0625 C-2.0525 7.0625 -3.0425 7.0625 -4.0625 7.0625 C-4.10504356 5.06295254 -4.10330783 3.06208364 -4.0625 1.0625 C-3.0625 0.0625 -3.0625 0.0625 0 0 Z " fill="#3C3B3A" transform="translate(329.0625,211.9375)"/>
<path d="M0 0 C0.33 0 0.66 0 1 0 C1 1.98 1 3.96 1 6 C2.32 6.33 3.64 6.66 5 7 C4.34 9.97 3.68 12.94 3 16 C2.34 14.68 1.68 13.36 1 12 C0.34 11.34 -0.32 10.68 -1 10 C-1.23046875 7.87109375 -1.23046875 7.87109375 -1.1875 5.4375 C-1.18105469 4.63183594 -1.17460937 3.82617188 -1.16796875 2.99609375 C-1 1 -1 1 0 0 Z " fill="#121211" transform="translate(315,207)"/>
<path d="M0 0 C2.97 0.495 2.97 0.495 6 1 C5.01 1.495 5.01 1.495 4 2 C4 2.66 4 3.32 4 4 C1.36 3.67 -1.28 3.34 -4 3 C-3.67 3.99 -3.34 4.98 -3 6 C-3.33 6.66 -3.66 7.32 -4 8 C-5.32 7.67 -6.64 7.34 -8 7 C-7.34 6.67 -6.68 6.34 -6 6 C-6.99 5.01 -7.98 4.02 -9 3 C-8 2 -8 2 -6.15234375 1.90234375 C-4.1015625 1.93489583 -2.05078125 1.96744792 0 2 C0 1.34 0 0.68 0 0 Z " fill="#4B4B4A" transform="translate(371,122)"/>
<path d="M0 0 C1.41623216 -0.05447047 2.83308191 -0.09300508 4.25 -0.125 C5.03890625 -0.14820313 5.8278125 -0.17140625 6.640625 -0.1953125 C9.20731941 0.0171622 10.7916067 0.71345895 13 2 C13 2.99 13 3.98 13 5 C7.76824163 5.38281159 4.62197306 4.21854707 0 2 C0 1.34 0 0.68 0 0 Z " fill="#E9E0CF" transform="translate(359,142)"/>
<path d="M0 0 C0 0.66 0 1.32 0 2 C-0.66 2 -1.32 2 -2 2 C-2 2.66 -2 3.32 -2 4 C-3.8125 5.6875 -3.8125 5.6875 -6 7 C-6.99 6.67 -7.98 6.34 -9 6 C-10.1875 3.4375 -10.1875 3.4375 -11 1 C-10.05125 1.020625 -9.1025 1.04125 -8.125 1.0625 C-4.96309465 0.99926189 -3.14866406 0 0 0 Z " fill="#494948" transform="translate(345,146)"/>
<path d="M0 0 C0.66 0 1.32 0 2 0 C2 0.99 2 1.98 2 3 C1.01 3 0.02 3 -1 3 C-1 3.66 -1 4.32 -1 5 C-0.360625 5.103125 0.27875 5.20625 0.9375 5.3125 C1.618125 5.539375 2.29875 5.76625 3 6 C3.33 6.99 3.66 7.98 4 9 C4.66 9.33 5.32 9.66 6 10 C2.3971162 9.30680858 -0.47899477 7.81454091 -3.6875 6.0625 C-4.66074219 5.53785156 -5.63398438 5.01320313 -6.63671875 4.47265625 C-9 3 -9 3 -10 1 C-4.25 2.875 -4.25 2.875 -2 4 C-2 3.34 -2 2.68 -2 2 C-1.34 1.34 -0.68 0.68 0 0 Z " fill="#858380" transform="translate(356,115)"/>
<path d="M0 0 C0.66 0.33 1.32 0.66 2 1 C1.67 1.66 1.34 2.32 1 3 C1.66 3 2.32 3 3 3 C3 3.99 3 4.98 3 6 C1.35 6 -0.3 6 -2 6 C-1.67 5.01 -1.34 4.02 -1 3 C-1.60328125 3.09539062 -2.2065625 3.19078125 -2.828125 3.2890625 C-4.02695312 3.45535156 -4.02695312 3.45535156 -5.25 3.625 C-6.03890625 3.74101562 -6.8278125 3.85703125 -7.640625 3.9765625 C-10.32152459 4.00319395 -11.72694089 3.36592084 -14 2 C-13.15695312 1.93941406 -12.31390625 1.87882813 -11.4453125 1.81640625 C-10.34960938 1.73261719 -9.25390625 1.64882812 -8.125 1.5625 C-7.03445313 1.48128906 -5.94390625 1.40007812 -4.8203125 1.31640625 C-2.05271029 1.16998297 -2.05271029 1.16998297 0 0 Z " fill="#98938A" transform="translate(342,209)"/>
<path d="M0 0 C2.31 0.33 4.62 0.66 7 1 C7.33 2.65 7.66 4.3 8 6 C7.01 6.33 6.02 6.66 5 7 C5 6.34 5 5.68 5 5 C3.68 5 2.36 5 1 5 C0.67 3.35 0.34 1.7 0 0 Z " fill="#212121" transform="translate(353,129)"/>
<path d="M0 0 C0.8353125 0.495 0.8353125 0.495 1.6875 1 C4.38375292 2.16594721 6.08657033 2.29134297 9 2 C11.25132517 1.08431094 11.25132517 1.08431094 13 0 C13.33 1.65 13.66 3.3 14 5 C12.10353002 4.88506243 10.20781668 4.75760358 8.3125 4.625 C7.25675781 4.55539063 6.20101563 4.48578125 5.11328125 4.4140625 C2.09322731 4.01239911 -0.24078054 3.25930981 -3 2 C-2.01 1.34 -1.02 0.68 0 0 Z " fill="#918F8D" transform="translate(380,193)"/>
<path d="M0 0 C2.97 0.495 2.97 0.495 6 1 C6 2.32 6 3.64 6 5 C2.01803543 6.05404945 -0.98195309 5.84098656 -5 5 C-4.67 4.34 -4.34 3.68 -4 3 C-2.68 3 -1.36 3 0 3 C0 2.01 0 1.02 0 0 Z " fill="#9E9B95" transform="translate(376,165)"/>
<path d="M0 0 C0.33 0.66 0.66 1.32 1 2 C3.97 1.34 6.94 0.68 10 0 C10 1.33333333 10 2.66666667 10 4 C5.23692563 4.95261487 0.8333472 5.08333357 -4 5 C-2.68 4.67 -1.36 4.34 0 4 C0 2.68 0 1.36 0 0 Z " fill="#232323" transform="translate(329,201)"/>
<path d="M0 0 C0.061875 0.86625 0.061875 0.86625 0.125 1.75 C1.44065958 5.13312465 3.96552364 6.19222685 7 8 C5.296875 8.71484375 5.296875 8.71484375 3 9 C0.640625 7.56640625 0.640625 7.56640625 -1.75 5.5625 C-2.94882812 4.57443359 -2.94882812 4.57443359 -4.171875 3.56640625 C-4.77515625 3.04949219 -5.3784375 2.53257813 -6 2 C-2.25 0 -2.25 0 0 0 Z " fill="#D4CDBE" transform="translate(381,123)"/>
<path d="M0 0 C0.66 0.66 1.32 1.32 2 2 C0.71372289 3.17260611 -0.57919783 4.3379283 -1.875 5.5 C-2.59429687 6.1496875 -3.31359375 6.799375 -4.0546875 7.46875 C-6 9 -6 9 -8 9 C-8.33 9.66 -8.66 10.32 -9 11 C-9 8.69 -9 6.38 -9 4 C-8.443125 4.268125 -7.88625 4.53625 -7.3125 4.8125 C-6.1678125 4.9053125 -6.1678125 4.9053125 -5 5 C-2.22877725 2.64573501 -2.22877725 2.64573501 0 0 Z " fill="#878582" transform="translate(344,217)"/>
<path d="M0 0 C-0.33 0.99 -0.66 1.98 -1 3 C-0.34 3.33 0.32 3.66 1 4 C0.67 4.66 0.34 5.32 0 6 C-1.32 5.34 -2.64 4.68 -4 4 C-4 3.34 -4 2.68 -4 2 C-5.65 2.66 -7.3 3.32 -9 4 C-9.66 3.34 -10.32 2.68 -11 2 C-7.17679443 0.57741188 -4.08718695 -0.24042276 0 0 Z " fill="#AAA7A1" transform="translate(335,134)"/>
<path d="M0 0 C0.99 0.66 1.98 1.32 3 2 C2.154375 2.7425 1.30875 3.485 0.4375 4.25 C-0.7690625 5.61125 -0.7690625 5.61125 -2 7 C-1.95502158 9.27523089 -1.95502158 9.27523089 -1 11 C-1.99 11 -2.98 11 -4 11 C-4 10.01 -4 9.02 -4 8 C-4.99 7.67 -5.98 7.34 -7 7 C-6.21625 6.5875 -5.4325 6.175 -4.625 5.75 C-1.94108344 3.9607223 -1.11901051 2.95011861 0 0 Z " fill="#5F5E5D" transform="translate(357,182)"/>
<path d="M0 0 C0.75732422 0.00644531 1.51464844 0.01289062 2.29492188 0.01953125 C3.08060547 0.03628906 3.86628906 0.05304688 4.67578125 0.0703125 C5.47306641 0.07933594 6.27035156 0.08835937 7.09179688 0.09765625 C9.05742025 0.12119665 11.022889 0.15706703 12.98828125 0.1953125 C12.98828125 0.5253125 12.98828125 0.8553125 12.98828125 1.1953125 C12.00085938 1.24429688 11.0134375 1.29328125 9.99609375 1.34375 C8.71476562 1.41851562 7.4334375 1.49328125 6.11328125 1.5703125 C4.19902344 1.67472656 4.19902344 1.67472656 2.24609375 1.78125 C-1.09233574 1.86772356 -1.09233574 1.86772356 -3.01171875 4.1953125 C-4.33171875 4.1953125 -5.65171875 4.1953125 -7.01171875 4.1953125 C-7.01171875 3.5353125 -7.01171875 2.8753125 -7.01171875 2.1953125 C-3.96490814 0.16410543 -3.41053551 -0.05128625 0 0 Z " fill="#A09E99" transform="translate(306.01171875,106.8046875)"/>
<path d="M0 0 C4.455 0.99 4.455 0.99 9 2 C9 2.66 9 3.32 9 4 C6.69 4 4.38 4 2 4 C2.66 5.98 3.32 7.96 4 10 C3.01 9.67 2.02 9.34 1 9 C0.67 6.03 0.34 3.06 0 0 Z " fill="#2A2A2A" transform="translate(372,205)"/>
<path d="M0 0 C0.66 0 1.32 0 2 0 C2.66 1.32 3.32 2.64 4 4 C3.34 4.66 2.68 5.32 2 6 C2 5.34 2 4.68 2 4 C1.34 4 0.68 4 0 4 C0 4.66 0 5.32 0 6 C-0.66 6 -1.32 6 -2 6 C-2 6.66 -2 7.32 -2 8 C-3.32 8.33 -4.64 8.66 -6 9 C-5.67 8.01 -5.34 7.02 -5 6 C-2.9375 5.3125 -2.9375 5.3125 -1 5 C-0.67 3.35 -0.34 1.7 0 0 Z " fill="#A7A49E" transform="translate(355,165)"/>
<path d="M0 0 C3.79588866 0.54226981 5.47211993 2.20127563 8 5 C4.33694766 5.74926071 1.57644848 6.2380014 -2 5 C-2 4.34 -2 3.68 -2 3 C-0.68 3 0.64 3 2 3 C2 2.34 2 1.68 2 1 C1.34 0.67 0.68 0.34 0 0 Z " fill="#9E9B96" transform="translate(360,137)"/>
<path d="M0 0 C3.375 1.5 3.375 1.5 6 3 C1.85071099 5.0746445 -4.56056647 2.97112608 -9 2 C-5.47089647 -0.35273568 -4.15685632 -0.40753493 0 0 Z " fill="#CAC4BA" transform="translate(309,110)"/>
<path d="M0 0 C0.99 0 1.98 0 3 0 C2.67 1.32 2.34 2.64 2 4 C4.97 4.495 4.97 4.495 8 5 C8.33 5.99 8.66 6.98 9 8 C2.25 6.375 2.25 6.375 0 3 C0 2.01 0 1.02 0 0 Z " fill="#BCB8AF" transform="translate(364,185)"/>
<path d="M0 0 C0.33 0.66 0.66 1.32 1 2 C0.34 2 -0.32 2 -1 2 C-0.01 3.65 0.98 5.3 2 7 C-0.64 8.65 -3.28 10.3 -6 12 C-5.71125 11.29875 -5.4225 10.5975 -5.125 9.875 C-3.94480522 6.96403037 -3.94480522 6.96403037 -3 3.75 C-2 1 -2 1 0 0 Z " fill="#4A4742" transform="translate(310,142)"/>
<path d="M0 0 C4.29 0 8.58 0 13 0 C13 0.33 13 0.66 13 1 C11.35 1 9.7 1 8 1 C8 1.66 8 2.32 8 3 C6.02 3.33 4.04 3.66 2 4 C2 3.34 2 2.68 2 2 C1.34 1.34 0.68 0.68 0 0 Z " fill="#807F7C" transform="translate(319,194)"/>
<path d="M0 0 C-0.9590625 1.1446875 -0.9590625 1.1446875 -1.9375 2.3125 C-4.14232781 4.88246713 -4.14232781 4.88246713 -5 8 C-5.99 7.67 -6.98 7.34 -8 7 C-7.34 6.01 -6.68 5.02 -6 4 C-6.66 3.67 -7.32 3.34 -8 3 C-8 2.34 -8 1.68 -8 1 C-2.25 -1.125 -2.25 -1.125 0 0 Z " fill="#989691" transform="translate(404,190)"/>
<path d="M0 0 C0.66 0.33 1.32 0.66 2 1 C0.7934375 1.8971875 0.7934375 1.8971875 -0.4375 2.8125 C-4.35490427 6.61924313 -3.90072123 11.84652934 -4 17 C-4.33 17 -4.66 17 -5 17 C-5.76681614 6.31569507 -5.76681614 6.31569507 -3.88671875 3.08984375 C-2.5 1.75 -2.5 1.75 0 0 Z " fill="#C5BDA9" transform="translate(145,297)"/>
<path d="M0 0 C1.65 0.33 3.3 0.66 5 1 C5.33 1.99 5.66 2.98 6 4 C3.36 4 0.72 4 -2 4 C-1.34 2.68 -0.68 1.36 0 0 Z " fill="#393938" transform="translate(402,175)"/>
<path d="M0 0 C1.2065625 0.0309375 1.2065625 0.0309375 2.4375 0.0625 C2.7675 0.7225 3.0975 1.3825 3.4375 2.0625 C2.7775 2.0625 2.1175 2.0625 1.4375 2.0625 C0.7775 3.3825 0.1175 4.7025 -0.5625 6.0625 C-1.5525 6.0625 -2.5425 6.0625 -3.5625 6.0625 C-3.605221 4.39638095 -3.60313832 2.72867115 -3.5625 1.0625 C-2.5625 0.0625 -2.5625 0.0625 0 0 Z " fill="#1E1E1E" transform="translate(317.5625,151.9375)"/>
<path d="M0 0 C3.59007126 1.33345504 6.79570907 2.8943231 10 5 C10 5.33 10 5.66 10 6 C6.47730515 6.4025937 5.20059192 6.13372795 2.1875 4.125 C1.465625 3.42375 0.74375 2.7225 0 2 C0 1.34 0 0.68 0 0 Z " fill="#DAD2C1" transform="translate(389,128)"/>
<path d="M0 0 C1.45903258 0.30921884 2.91720722 0.62248799 4.375 0.9375 C5.18710937 1.11152344 5.99921875 1.28554687 6.8359375 1.46484375 C9 2 9 2 11 3 C11 3.66 11 4.32 11 5 C7.0507432 4.44894091 3.65079826 3.61064629 0 2 C0 1.34 0 0.68 0 0 Z " fill="#F3E9D4" transform="translate(330,114)"/>
<path d="M0 0 C0.66 0 1.32 0 2 0 C2 2.31 2 4.62 2 7 C0.68 7 -0.64 7 -2 7 C-2.125 4.625 -2.125 4.625 -2 2 C-1.34 1.34 -0.68 0.68 0 0 Z " fill="#D0C8B9" transform="translate(312,210)"/>
<path d="M0 0 C0.33 0.99 0.66 1.98 1 3 C2.65 2.67 4.3 2.34 6 2 C6 3.32 6 4.64 6 6 C3.69 6 1.38 6 -1 6 C-1.042721 4.33388095 -1.04063832 2.66617115 -1 1 C-0.67 0.67 -0.34 0.34 0 0 Z " fill="#7D7C7A" transform="translate(354,156)"/>
<path d="M0 0 C0.99 0 1.98 0 3 0 C3.33 1.65 3.66 3.3 4 5 C2.35 5.33 0.7 5.66 -1 6 C-1.042721 4.33388095 -1.04063832 2.66617115 -1 1 C-0.67 0.67 -0.34 0.34 0 0 Z " fill="#EDE3D0" transform="translate(338,142)"/>
<path d="M0 0 C3.63 0.33 7.26 0.66 11 1 C7.23312136 2.88343932 5.97041037 3.22057835 2 3 C1.67 4.32 1.34 5.64 1 7 C0.34 7 -0.32 7 -1 7 C-0.67 4.69 -0.34 2.38 0 0 Z " fill="#A7A39D" transform="translate(336,140)"/>
<path d="M0 0 C1.58409994 0.11487748 3.16728963 0.24234508 4.75 0.375 C6.07257813 0.47941406 6.07257813 0.47941406 7.421875 0.5859375 C9.99066382 0.99850055 11.75841015 1.71160957 14 3 C14 3.66 14 4.32 14 5 C12.22739369 4.54857225 10.4569632 4.08859477 8.6875 3.625 C7.20830078 3.24214844 7.20830078 3.24214844 5.69921875 2.8515625 C3 2 3 2 0 0 Z " fill="#E5DCCB" transform="translate(316,114)"/>
<path d="M0 0 C0.99 0.33 1.98 0.66 3 1 C1.68 2.65 0.36 4.3 -1 6 C-5.455 5.01 -5.455 5.01 -10 4 C-10 3.67 -10 3.34 -10 3 C-9.04287109 2.80083984 -9.04287109 2.80083984 -8.06640625 2.59765625 C-7.24011719 2.42105469 -6.41382813 2.24445313 -5.5625 2.0625 C-4.73878906 1.88847656 -3.91507812 1.71445313 -3.06640625 1.53515625 C-1.02338796 1.19247006 -1.02338796 1.19247006 0 0 Z " fill="#8E8C87" transform="translate(343,202)"/>
<path d="M0 0 C2.64 0 5.28 0 8 0 C7.67 1.65 7.34 3.3 7 5 C4.69 4.01 2.38 3.02 0 2 C0 1.34 0 0.68 0 0 Z " fill="#B6B3AC" transform="translate(381,200)"/>
<path d="M0 0 C2.31 0 4.62 0 7 0 C6.67 1.65 6.34 3.3 6 5 C5.34 5 4.68 5 4 5 C4 4.34 4 3.68 4 3 C2.35 3 0.7 3 -1 3 C-0.67 2.01 -0.34 1.02 0 0 Z " fill="#E2DBCB" transform="translate(372,201)"/>
<path d="M0 0 C0 1.65 0 3.3 0 5 C0.66 5 1.32 5 2 5 C2 5.99 2 6.98 2 8 C0.68 7.67 -0.64 7.34 -2 7 C-2 6.34 -2 5.68 -2 5 C-2.66 4.67 -3.32 4.34 -4 4 C-3.34 3.67 -2.68 3.34 -2 3 C-2.66 2.34 -3.32 1.68 -4 1 C-2 0 -2 0 0 0 Z " fill="#696867" transform="translate(385,157)"/>
<path d="M0 0 C1.46015291 0.28241641 2.91809793 0.57626614 4.375 0.875 C5.18710937 1.03742188 5.99921875 1.19984375 6.8359375 1.3671875 C9 2 9 2 11 4 C10.67 4.66 10.34 5.32 10 6 C8.68 5.67 7.36 5.34 6 5 C6.33 4.34 6.66 3.68 7 3 C6.030625 2.87625 5.06125 2.7525 4.0625 2.625 C3.051875 2.41875 2.04125 2.2125 1 2 C0.67 1.34 0.34 0.68 0 0 Z " fill="#4C4C4C" transform="translate(350,124)"/>
<path d="M0 0 C0 0.66 0 1.32 0 2 C0.66 2 1.32 2 2 2 C1.67 2.66 1.34 3.32 1 4 C0.01 3.67 -0.98 3.34 -2 3 C-2 3.66 -2 4.32 -2 5 C-2.66 5 -3.32 5 -4 5 C-4 4.01 -4 3.02 -4 2 C-5.32 1.67 -6.64 1.34 -8 1 C-5.07175348 0.02391783 -3.04386724 -0.08226668 0 0 Z " fill="#91918F" transform="translate(324,108)"/>
<path d="M0 0 C1.85776765 3.13498292 2.20140476 5.37471432 2 9 C1.34 9 0.68 9 0 9 C0 8.34 0 7.68 0 7 C-1.65 7.33 -3.3 7.66 -5 8 C-5 7.34 -5 6.68 -5 6 C-4.01 5.67 -3.02 5.34 -2 5 C-1.34 5.33 -0.68 5.66 0 6 C0 4.02 0 2.04 0 0 Z " fill="#434240" transform="translate(324,228)"/>
<path d="M0 0 C0.33 0 0.66 0 1 0 C1.33 2.31 1.66 4.62 2 7 C2.66 7 3.32 7 4 7 C3.67 7.66 3.34 8.32 3 9 C1.02 8.34 -0.96 7.68 -3 7 C-2.67 5.68 -2.34 4.36 -2 3 C-1.34 3 -0.68 3 0 3 C0 2.01 0 1.02 0 0 Z " fill="#575656" transform="translate(369,182)"/>
<path d="M0 0 C1.98 0 3.96 0 6 0 C5.67 0.99 5.34 1.98 5 3 C3.02 3.33 1.04 3.66 -1 4 C-0.67 2.68 -0.34 1.36 0 0 Z " fill="#D2CAB9" transform="translate(327,213)"/>
<path d="M0 0 C0.66 0 1.32 0 2 0 C3.1875 1.625 3.1875 1.625 4 4 C2.625 7.25 2.625 7.25 1 10 C0.855625 9.38125 0.71125 8.7625 0.5625 8.125 C0.06847775 5.96741678 0.06847775 5.96741678 -1 4 C-0.5625 1.875 -0.5625 1.875 0 0 Z " fill="#656563" transform="translate(379,182)"/>
<path d="M0 0 C0.99 0 1.98 0 3 0 C3 1.65 3 3.3 3 5 C1.35 5.66 -0.3 6.32 -2 7 C-1.34 4.69 -0.68 2.38 0 0 Z " fill="#2C2B2B" transform="translate(359,166)"/>
<path d="M0 0 C3.3 0.99 6.6 1.98 10 3 C10 3.66 10 4.32 10 5 C6.28111761 4.49287967 3.26545761 3.88391785 0 2 C0 1.34 0 0.68 0 0 Z " fill="#8E8D8B" transform="translate(347,124)"/>
<path d="M0 0 C-0.928125 0.433125 -1.85625 0.86625 -2.8125 1.3125 C-5.47184073 2.72038627 -7.08105905 3.76123556 -9 6 C-9 5.34 -9 4.68 -9 4 C-9.99 3.67 -10.98 3.34 -12 3 C-10.5682384 2.30062798 -9.12932968 1.61587282 -7.6875 0.9375 C-6.48673828 0.36322266 -6.48673828 0.36322266 -5.26171875 -0.22265625 C-3 -1 -3 -1 0 0 Z " fill="#BAB3A7" transform="translate(307,216)"/>
<path d="M0 0 C0 1.32 0 2.64 0 4 C-1.65 4.33 -3.3 4.66 -5 5 C-4.34 4.67 -3.68 4.34 -3 4 C-3 3.34 -3 2.68 -3 2 C-4.65 1.67 -6.3 1.34 -8 1 C-4.93251126 -0.86240388 -3.40254489 -1.2151946 0 0 Z " fill="#D1CCC2" transform="translate(398,198)"/>
<path d="M0 0 C1.32 0.33 2.64 0.66 4 1 C4 2.65 4 4.3 4 6 C2.68 6.33 1.36 6.66 0 7 C0 4.69 0 2.38 0 0 Z " fill="#262626" transform="translate(363,190)"/>
<path d="M0 0 C4.95 0.99 4.95 0.99 10 2 C8 4 8 4 4.875 4.125 C3.92625 4.08375 2.9775 4.0425 2 4 C1.34 2.68 0.68 1.36 0 0 Z " fill="#5A5A59" transform="translate(336,155)"/>
<path d="M0 0 C0.33 0.66 0.66 1.32 1 2 C3.02463255 2.65213292 3.02463255 2.65213292 5 3 C3 4 3 4 -1 4 C-1 4.66 -1 5.32 -1 6 C-1.66 6 -2.32 6 -3 6 C-3.33 4.35 -3.66 2.7 -4 1 C-2.68 0.67 -1.36 0.34 0 0 Z " fill="#383838" transform="translate(342,130)"/>
<path d="M0 0 C2.24366996 1.12183498 4.07335866 2.39446555 6 4 C6 4.66 6 5.32 6 6 C-0.15234375 5.4140625 -0.15234375 5.4140625 -2 5 C-2.33 4.34 -2.66 3.68 -3 3 C-2.01 3 -1.02 3 0 3 C0 2.01 0 1.02 0 0 Z " fill="#BBB7AD" transform="translate(357,111)"/>
<path d="M0 0 C3.48670834 1.1094072 6.77484237 2.26337666 10 4 C9.67 4.66 9.34 5.32 9 6 C8.113125 5.690625 7.22625 5.38125 6.3125 5.0625 C3.53290845 4.1709329 0.86863625 3.50622993 -2 3 C-1.34 2.67 -0.68 2.34 0 2 C0 1.34 0 0.68 0 0 Z " fill="#DAD3C6" transform="translate(336,111)"/>
<path d="M0 0 C-3 2 -3 2 -5 3 C-5.65555119 5.52733235 -5.65555119 5.52733235 -6 8 C-6.33 8 -6.66 8 -7 8 C-7 6.02 -7 4.04 -7 2 C-7.66 1.67 -8.32 1.34 -9 1 C-6.04335481 -0.4783226 -3.25770263 -0.06032783 0 0 Z " fill="#555554" transform="translate(389,169)"/>
<path d="M0 0 C2.625 0.9375 2.625 0.9375 5 2 C4.67 2.66 4.34 3.32 4 4 C2.34608154 4.39171753 0.67654729 4.72057545 -1 5 C-1.99 5.33 -2.98 5.66 -4 6 C-4 5.34 -4 4.68 -4 4 C-3.34 4 -2.68 4 -2 4 C-2 3.01 -2 2.02 -2 1 C-1.34 0.67 -0.68 0.34 0 0 Z " fill="#595857" transform="translate(375,153)"/>
<path d="M0 0 C0.33 0 0.66 0 1 0 C1.66 3.3 2.32 6.6 3 10 C1.68 9.67 0.36 9.34 -1 9 C-0.67 6.03 -0.34 3.06 0 0 Z " fill="#868684" transform="translate(385,140)"/>
<path d="M0 0 C3.96 0 7.92 0 12 0 C12 0.33 12 0.66 12 1 C10.37681021 1.36237263 8.7513642 1.71465157 7.125 2.0625 C6.22007812 2.25972656 5.31515625 2.45695312 4.3828125 2.66015625 C2 3 2 3 0 2 C0 1.34 0 0.68 0 0 Z " fill="#E3DAC8" transform="translate(324,108)"/>
<path d="M0 0 C0.66 0 1.32 0 2 0 C0.84826645 2.46800047 -0.04783565 4.04783565 -2 6 C-4.625 6.125 -4.625 6.125 -7 6 C-3.25 3 -3.25 3 -1 3 C-0.67 2.01 -0.34 1.02 0 0 Z " fill="#514F4C" transform="translate(340,215)"/>
<path d="M0 0 C0.99 0 1.98 0 3 0 C3.33 2.31 3.66 4.62 4 7 C3.01 7 2.02 7 1 7 C0.67 4.69 0.34 2.38 0 0 Z " fill="#8F8E8B" transform="translate(360,189)"/>
<path d="M0 0 C0.99 0.33 1.98 0.66 3 1 C2.34 1 1.68 1 1 1 C1.33 2.65 1.66 4.3 2 6 C0.35 5.67 -1.3 5.34 -3 5 C-3.33 5.66 -3.66 6.32 -4 7 C-4 6.01 -4 5.02 -4 4 C-3.01 4 -2.02 4 -1 4 C-0.67 2.68 -0.34 1.36 0 0 Z " fill="#525251" transform="translate(363,184)"/>
<path d="M0 0 C0.33 0 0.66 0 1 0 C0.25 6.75 0.25 6.75 -2 9 C-2.66 7.68 -3.32 6.36 -4 5 C-3.01 5 -2.02 5 -1 5 C-0.67 3.35 -0.34 1.7 0 0 Z " fill="#B0ADA8" transform="translate(408,177)"/>
<path d="M0 0 C0.33 0 0.66 0 1 0 C1 2.31 1 4.62 1 7 C1.99 7 2.98 7 4 7 C4 8.32 4 9.64 4 11 C3.34 11 2.68 11 2 11 C2 10.34 2 9.68 2 9 C1.34 9 0.68 9 0 9 C0 6.03 0 3.06 0 0 Z " fill="#C8C4BC" transform="translate(362,167)"/>
<path d="M0 0 C-0.99 1.485 -0.99 1.485 -2 3 C-4.625 3.1875 -4.625 3.1875 -7 3 C-7.33 2.01 -7.66 1.02 -8 0 C-2.25 -1.125 -2.25 -1.125 0 0 Z " fill="#E6DDCC" transform="translate(346,159)"/>
<path d="M0 0 C1.98 1.32 3.96 2.64 6 4 C2.92677456 4.91058531 0.19902639 5.08886184 -3 5 C-3 4.34 -3 3.68 -3 3 C-2.01 2.67 -1.02 2.34 0 2 C0 1.34 0 0.68 0 0 Z " fill="#BAB6AE" transform="translate(378,156)"/>
<path d="M0 0 C2.92879371 0.62759865 5.36095629 1.58622659 8 3 C8 3.66 8 4.32 8 5 C7.01 5.33 6.02 5.66 5 6 C4.34 5.01 3.68 4.02 3 3 C2.01 2.67 1.02 2.34 0 2 C0 1.34 0 0.68 0 0 Z " fill="#82807E" transform="translate(326,114)"/>
<path d="M0 0 C0.33 0 0.66 0 1 0 C1 2.64 1 5.28 1 8 C1.99 8.33 2.98 8.66 4 9 C2.02 9.99 2.02 9.99 0 11 C-0.66 10.34 -1.32 9.68 -2 9 C-1.67 8.67 -1.34 8.34 -1 8 C-0.76924918 6.65252916 -0.58846937 5.29622435 -0.4375 3.9375 C-0.293125 2.638125 -0.14875 1.33875 0 0 Z " fill="#454443" transform="translate(318,195)"/>
<path d="M0 0 C1.70884005 1.62339805 3.37446717 3.29319053 5 5 C5 5.66 5 6.32 5 7 C2.69 6.67 0.38 6.34 -2 6 C-1.34 4.02 -0.68 2.04 0 0 Z " fill="#666564" transform="translate(376,195)"/>
<path d="M0 0 C0 1.65 0 3.3 0 5 C-1.32 5.33 -2.64 5.66 -4 6 C-4.33 4.68 -4.66 3.36 -5 2 C-2 0 -2 0 0 0 Z " fill="#222222" transform="translate(363,180)"/>
<path d="M0 0 C0.33 0.66 0.66 1.32 1 2 C1.66 2 2.32 2 3 2 C3 3.32 3 4.64 3 6 C0.69 5.67 -1.62 5.34 -4 5 C-3.67 4.34 -3.34 3.68 -3 3 C-2.01 3 -1.02 3 0 3 C0 2.01 0 1.02 0 0 Z " fill="#939392" transform="translate(363,176)"/>
<path d="M0 0 C2 1.1875 2 1.1875 4 3 C4.25 5.6875 4.25 5.6875 4 8 C3.34 8 2.68 8 2 8 C0.74335022 5.09399739 0 3.20395416 0 0 Z " fill="#535250" transform="translate(401,167)"/>
<path d="M0 0 C0 0.66 0 1.32 0 2 C-0.66 2 -1.32 2 -2 2 C-2.33 3.32 -2.66 4.64 -3 6 C-4.32 5.34 -5.64 4.68 -7 4 C-2.25 0 -2.25 0 0 0 Z " fill="#6F6E6C" transform="translate(350,164)"/>
<path d="M0 0 C1.65 0 3.3 0 5 0 C5 0.99 5 1.98 5 3 C4.34 2.67 3.68 2.34 3 2 C3 2.66 3 3.32 3 4 C1.68 3.34 0.36 2.68 -1 2 C-0.67 1.34 -0.34 0.68 0 0 Z " fill="#DFD8CA" transform="translate(352,149)"/>
<path d="M0 0 C0.66 0 1.32 0 2 0 C2.33 1.65 2.66 3.3 3 5 C-0.75 6.125 -0.75 6.125 -3 5 C-3 4.34 -3 3.68 -3 3 C-2.01 3 -1.02 3 0 3 C0 2.01 0 1.02 0 0 Z " fill="#393938" transform="translate(372,145)"/>
<path d="M0 0 C4.55384615 -0.36923077 4.55384615 -0.36923077 6.8125 1.5 C7.204375 1.995 7.59625 2.49 8 3 C5.69 3 3.38 3 1 3 C0.67 2.01 0.34 1.02 0 0 Z " fill="#BCB7AE" transform="translate(367,125)"/>
<path d="M0 0 C0.66 0.99 1.32 1.98 2 3 C0.1875 4.5625 0.1875 4.5625 -2 6 C-2.99 5.67 -3.98 5.34 -5 5 C-3.35 3.35 -1.7 1.7 0 0 Z " fill="#D3CCBE" transform="translate(341,217)"/>
<path d="M0 0 C2.64 0.33 5.28 0.66 8 1 C7.01 1.33 6.02 1.66 5 2 C5 2.66 5 3.32 5 4 C4.01 4.33 3.02 4.66 2 5 C2 4.34 2 3.68 2 3 C1.34 2.67 0.68 2.34 0 2 C0 1.34 0 0.68 0 0 Z " fill="#DBD5C8" transform="translate(352,161)"/>
<path d="M0 0 C0.33 0.99 0.66 1.98 1 3 C-1.64 3.33 -4.28 3.66 -7 4 C-3.375 0 -3.375 0 0 0 Z " fill="#E7DECD" transform="translate(378,156)"/>
<path d="M0 0 C1.65 0 3.3 0 5 0 C5 1.32 5 2.64 5 4 C2.525 3.01 2.525 3.01 0 2 C0 1.34 0 0.68 0 0 Z " fill="#C8C2B6" transform="translate(370,150)"/>
</svg>
